<svg version="1.1" xmlns="http://www.w3.org/2000/svg" xmlns:xlink="http://www.w3.org/1999/xlink" width="203.85139" height="303.13685" viewBox="0,0,203.85139,303.13685"><g transform="translate(-138.07434,-51.58335)"><g data-paper-data="{&quot;isPaintingLayer&quot;:true}" fill-rule="nonzero" stroke-miterlimit="10" stroke-dasharray="" stroke-dashoffset="0" style="mix-blend-mode: normal"><g data-paper-data="{&quot;index&quot;:null}" stroke-linejoin="miter"><g><g data-paper-data="{&quot;index&quot;:null}" fill="#000000" stroke-linecap="round"><path d="M259.14554,295.19598c4.14546,-0.94191 8.6032,-0.4564 12.70108,0.50804c2.39306,0.67637 4.45842,2.48263 6.09652,4.23369c1.39323,1.52328 2.10076,3.6806 2.79424,5.5038c0.31702,0.83386 0.22235,1.80778 0.25402,2.66722c0.00796,0.2149 0.04403,0.10432 -0.12701,0.12701c-0.68484,0.09009 0.35749,0.09128 -2.07451,0.08467c-9.72784,-0.02642 -19.48498,-0.06689 -29.21248,-0.16935c-2.43184,0.0017 -0.98527,0.08214 -1.43946,-0.08467c-0.29924,-0.1099 -0.80186,-0.12515 -0.67739,-0.67739c0.49805,-2.20863 0.60643,-4.769 2.20152,-6.43521c2.55512,-2.66808 5.86553,-4.94614 9.48347,-5.75782z" stroke="none" stroke-width="1"/><path d="M246.9525,307.89708l1.86282,-58.08625l3.38695,0.16934l2.03217,48.09474l-0.33869,0.84674l1.01609,8.97542z" data-paper-data="{&quot;origPos&quot;:null}" stroke="#000000" stroke-width="0"/></g><g><g fill="#ff9f9f"><path d="M259.14554,295.19598c4.14546,-0.94191 8.6032,-0.4564 12.70108,0.50804c2.39306,0.67637 4.45842,2.48263 6.09652,4.23369c1.39323,1.52328 2.10076,3.6806 2.79424,5.5038c0.31702,0.83386 0.22235,1.80778 0.25402,2.66722c0.00796,0.2149 0.04403,0.10432 -0.12701,0.12701c-0.68484,0.09009 0.35749,0.09128 -2.07451,0.08467c-9.72784,-0.02642 -19.48498,-0.06689 -29.21248,-0.16935c-2.43184,0.0017 -0.98527,0.08214 -1.43946,-0.08467c-0.29924,-0.1099 -0.80186,-0.12515 -0.67739,-0.67739c0.49805,-2.20863 0.60643,-4.769 2.20152,-6.43521c2.55512,-2.66808 5.86553,-4.94614 9.48347,-5.75782z" stroke="none" stroke-width="1" stroke-linecap="round"/><path d="M246.95249,308.23324l0.71483,-22.41871c2.01605,-0.29625 4.07742,-0.45787 6.02916,-0.47118l0.53796,12.73158l-0.33869,0.84674l1.01609,9.21071z" stroke="#000000" stroke-width="0" stroke-linecap="butt"/></g><g fill="#ff6565" stroke-linecap="butt"><path d="M253.83218,288.55511c-1.78844,0.24302 -3.57385,0.45838 -5.3874,0.64953c-0.29391,0.00856 -0.58958,0.01786 -0.8864,0.02626l0.10894,-3.41638c2.01605,-0.29625 4.07742,-0.45787 6.02916,-0.47118z" stroke="#000000" stroke-width="0"/><g><path d="M267.75398,308.28188c0.57222,-4.32967 1.30434,-8.67352 1.86116,-13.0443c0.75279,0.13651 1.4979,0.29381 2.23148,0.46646c2.39306,0.67637 4.45842,2.48263 6.09652,4.23369c1.39323,1.52328 2.10076,3.6806 2.79424,5.5038c0.31702,0.83386 0.22235,1.80778 0.25402,2.66722c0.00796,0.2149 0.04403,0.10432 -0.12701,0.12701c-0.68484,0.09009 0.35749,0.09128 -2.07451,0.08467c-3.67551,-0.00998 -7.3552,-0.02197 -11.0359,-0.03855z" stroke="none" stroke-width="1"/><path d="M247.10913,303.32077c1.04406,-0.31191 2.15866,-0.27632 3.42479,0.47397c1.5371,0.91086 2.72429,2.48976 3.76448,4.34542l-7.3459,0.09307z" stroke="#000000" stroke-width="0"/></g></g></g></g><g><g><g fill="#ff5f5f"><path d="M259.14555,295.19598c4.14546,-0.94191 8.6032,-0.4564 12.70108,0.50804c2.39306,0.67637 4.45842,2.48263 6.09652,4.23369c1.39323,1.52328 2.10076,3.6806 2.79424,5.5038c0.31702,0.83386 0.22235,1.80778 0.25402,2.66722c0.00796,0.2149 0.04403,0.10432 -0.12701,0.12701c-0.68484,0.09009 0.35749,0.09128 -2.07451,0.08467c-9.72784,-0.02642 -19.48498,-0.06689 -29.21248,-0.16935c-2.43184,0.0017 -0.98527,0.08214 -1.43946,-0.08467c-0.29924,-0.1099 -0.80186,-0.12515 -0.67739,-0.67739c0.49805,-2.20863 0.60643,-4.769 2.20152,-6.43521c2.55512,-2.66808 5.86553,-4.94614 9.48347,-5.75782z" stroke="none" stroke-width="1" stroke-linecap="round"/><path d="M246.95251,308.23324l0.31978,-10.0292c0.99644,-0.68917 2.0071,-1.3002 2.96326,-1.79411c0.85398,-0.44112 2.31316,-0.99888 3.85877,-1.65133l0.14013,3.31634l-0.33869,0.84674l1.01609,9.21071z" stroke="#000000" stroke-width="0" stroke-linecap="butt"/></g><g fill="#9a3939" stroke-linecap="butt"><path d="M254.19892,297.23418c-2.64006,1.47493 -5.09353,3.19203 -7.04283,4.61418l0.1162,-3.6443c0.99644,-0.68917 2.0071,-1.3002 2.96326,-1.79411c0.85398,-0.44112 2.31316,-0.99888 3.85877,-1.65133z" stroke="#000000" stroke-width="0"/><g><path d="M267.75399,308.28188c0.57222,-4.32967 1.30434,-8.67352 1.86116,-13.0443c0.75279,0.13651 1.4979,0.29381 2.23148,0.46646c2.39306,0.67637 4.45842,2.48263 6.09652,4.23369c1.39323,1.52328 2.10076,3.6806 2.79424,5.5038c0.31702,0.83386 0.22235,1.80778 0.25402,2.66722c0.00796,0.2149 0.04403,0.10432 -0.12701,0.12701c-0.68484,0.09009 0.35749,0.09128 -2.07451,0.08467c-3.67551,-0.00998 -7.3552,-0.02197 -11.0359,-0.03855z" stroke="none" stroke-width="1"/><path d="M247.10914,303.32077c1.04406,-0.31191 2.15866,-0.27632 3.42479,0.47397c1.5371,0.91086 2.72429,2.48976 3.76448,4.34542l-7.3459,0.09307z" stroke="#000000" stroke-width="0"/></g></g></g><g fill="#9a3939" stroke="none" stroke-width="1" stroke-linecap="butt"><path d="M265.14143,294.71599c0.23373,0.01048 0.46744,0.02387 0.70104,0.04002c-0.00687,1.79817 -0.08513,4.86847 -0.77757,6.2154c-0.18195,0.56726 -0.15823,-1.76553 -0.1105,-2.19704c0.14752,-1.33355 0.18117,-2.70539 0.18703,-4.05838z"/><path d="M262.67811,294.72013c0.26328,-0.01348 0.52701,-0.02253 0.79107,-0.02738c-0.15279,1.47124 -0.42208,2.96561 -0.42622,4.43765c-0.00075,0.26574 0.1388,1.61719 -0.11148,1.76961c-0.83147,-1.65194 -0.5266,-4.04556 -0.25337,-6.17988z"/></g></g></g><g stroke-linejoin="miter"><g><g data-paper-data="{&quot;index&quot;:null}" fill="#000000" stroke-linecap="round"><path d="M220.85456,295.19597c3.61794,0.81168 6.92835,3.08974 9.48347,5.75782c1.59509,1.66621 1.70347,4.22658 2.20152,6.43521c0.12447,0.55224 -0.37815,0.56749 -0.67739,0.67739c-0.45419,0.16681 0.99238,0.08637 -1.43946,0.08467c-9.7275,0.10246 -19.48464,0.14293 -29.21248,0.16935c-2.432,0.00661 -1.38967,0.00542 -2.07451,-0.08467c-0.17104,-0.02269 -0.13497,0.08789 -0.12701,-0.12701c0.03167,-0.85944 -0.063,-1.83336 0.25402,-2.66722c0.69348,-1.8232 1.40101,-3.98052 2.79424,-5.5038c1.6381,-1.75106 3.70346,-3.55732 6.09652,-4.23369c4.09788,-0.96444 8.55562,-1.44995 12.70108,-0.50804z" stroke="none" stroke-width="1"/><path d="M225.08826,307.89707l1.01609,-8.97542l-0.33869,-0.84674l2.03217,-48.09474l3.38695,-0.16934l1.86282,58.08625z" data-paper-data="{&quot;origPos&quot;:null}" stroke="#000000" stroke-width="0"/></g><g><g fill="#ff9f9f"><path d="M220.85456,295.19597c3.61794,0.81168 6.92835,3.08974 9.48347,5.75782c1.59509,1.66621 1.70347,4.22658 2.20152,6.43521c0.12447,0.55224 -0.37815,0.56749 -0.67739,0.67739c-0.45419,0.16681 0.99238,0.08637 -1.43946,0.08467c-9.7275,0.10246 -19.48464,0.14293 -29.21248,0.16935c-2.432,0.00661 -1.38967,0.00542 -2.07451,-0.08467c-0.17104,-0.02269 -0.13497,0.08789 -0.12701,-0.12701c0.03167,-0.85944 -0.063,-1.83336 0.25402,-2.66722c0.69348,-1.8232 1.40101,-3.98052 2.79424,-5.5038c1.6381,-1.75106 3.70346,-3.55732 6.09652,-4.23369c4.09788,-0.96444 8.55562,-1.44995 12.70108,-0.50804z" stroke="none" stroke-width="1" stroke-linecap="round"/><path d="M225.08826,308.13238l1.01609,-9.21071l-0.33869,-0.84674l0.53796,-12.73158c1.95174,0.01331 4.01311,0.17493 6.02916,0.47118l0.71483,22.41871z" stroke="#000000" stroke-width="0" stroke-linecap="butt"/></g><g fill="#ff6565" stroke-linecap="butt"><path d="M226.30362,285.34334c1.95174,0.01331 4.01311,0.17493 6.02916,0.47118l0.10894,3.41638c-0.29682,-0.0084 -0.59249,-0.0177 -0.8864,-0.02626c-1.81355,-0.19115 -3.59896,-0.40651 -5.3874,-0.64953z" stroke="#000000" stroke-width="0"/><g><path d="M201.21022,308.32043c-2.432,0.00661 -1.38967,0.00542 -2.07451,-0.08467c-0.17104,-0.02269 -0.13497,0.08789 -0.12701,-0.12701c0.03167,-0.85944 -0.063,-1.83336 0.25402,-2.66722c0.69348,-1.8232 1.40101,-3.98052 2.79424,-5.5038c1.6381,-1.75106 3.70346,-3.55732 6.09652,-4.23369c0.73358,-0.17265 1.47869,-0.32995 2.23148,-0.46646c0.55682,4.37078 1.28894,8.71463 1.86116,13.0443c-3.6807,0.01658 -7.36039,0.02857 -11.0359,0.03855z" stroke="none" stroke-width="1"/><path d="M233.0476,308.23323l-7.3459,-0.09307c1.04019,-1.85566 2.22738,-3.43456 3.76448,-4.34542c1.26613,-0.75029 2.38073,-0.78588 3.42479,-0.47397z" stroke="#000000" stroke-width="0"/></g></g></g></g><g><g><g fill="#ff5f5f"><path d="M220.85455,295.19597c3.61794,0.81168 6.92835,3.08974 9.48347,5.75782c1.59509,1.66621 1.70347,4.22658 2.20152,6.43521c0.12447,0.55224 -0.37815,0.56749 -0.67739,0.67739c-0.45419,0.16681 0.99238,0.08637 -1.43946,0.08467c-9.7275,0.10246 -19.48464,0.14293 -29.21248,0.16935c-2.432,0.00661 -1.38967,0.00542 -2.07451,-0.08467c-0.17104,-0.02269 -0.13497,0.08789 -0.12701,-0.12701c0.03167,-0.85944 -0.063,-1.83336 0.25402,-2.66722c0.69348,-1.8232 1.40101,-3.98052 2.79424,-5.5038c1.6381,-1.75106 3.70346,-3.55732 6.09652,-4.23369c4.09788,-0.96444 8.55562,-1.44995 12.70108,-0.50804z" stroke="none" stroke-width="1" stroke-linecap="round"/><path d="M225.08825,308.13239l1.01609,-9.21071l-0.33869,-0.84674l0.14013,-3.31634c1.54561,0.65245 3.00479,1.21021 3.85877,1.65133c0.95616,0.49391 1.96682,1.10494 2.96326,1.79411l0.31978,10.0292z" stroke="#000000" stroke-width="0" stroke-linecap="butt"/></g><g fill="#9a3939" stroke-linecap="butt"><path d="M225.90578,294.75862c1.54561,0.65245 3.00479,1.21021 3.85877,1.65133c0.95616,0.49391 1.96682,1.10494 2.96326,1.79411l0.1162,3.6443c-1.9493,-1.42215 -4.40277,-3.13925 -7.04283,-4.61418z" stroke="#000000" stroke-width="0"/><g><path d="M201.21021,308.32043c-2.432,0.00661 -1.38967,0.00542 -2.07451,-0.08467c-0.17104,-0.02269 -0.13497,0.08789 -0.12701,-0.12701c0.03167,-0.85944 -0.063,-1.83336 0.25402,-2.66722c0.69348,-1.8232 1.40101,-3.98052 2.79424,-5.5038c1.6381,-1.75106 3.70346,-3.55732 6.09652,-4.23369c0.73358,-0.17265 1.47869,-0.32995 2.23148,-0.46646c0.55682,4.37078 1.28894,8.71463 1.86116,13.0443c-3.6807,0.01658 -7.36039,0.02857 -11.0359,0.03855z" stroke="none" stroke-width="1"/><path d="M233.04759,308.23323l-7.3459,-0.09307c1.04019,-1.85566 2.22738,-3.43456 3.76448,-4.34542c1.26613,-0.75029 2.38073,-0.78588 3.42479,-0.47397z" stroke="#000000" stroke-width="0"/></g></g></g><g fill="#9a3939" stroke="none" stroke-width="1" stroke-linecap="butt"><path d="M215.0457,298.77437c0.04773,0.43151 0.07145,2.7643 -0.1105,2.19704c-0.69244,-1.34693 -0.7707,-4.41723 -0.77757,-6.2154c0.2336,-0.01615 0.46731,-0.02954 0.70104,-0.04002c0.00586,1.35299 0.03951,2.72483 0.18703,4.05838z"/><path d="M217.06862,300.90001c-0.25028,-0.15242 -0.11073,-1.50387 -0.11148,-1.76961c-0.00414,-1.47204 -0.27343,-2.96641 -0.42622,-4.43765c0.26406,0.00485 0.52779,0.0139 0.79107,0.02738c0.27323,2.13432 0.5781,4.52794 -0.25337,6.17988z"/></g></g></g><g data-paper-data="{&quot;index&quot;:null}" stroke-linejoin="miter"><g data-paper-data="{&quot;origRot&quot;:0,&quot;index&quot;:null}" fill="#000000" stroke-width="0"><path d="M310.91463,265.65792l-9.84841,-44.72313l3.23457,-0.82961l12.77196,43.6691l-6.13495,1.7763z" stroke="#000000" stroke-linecap="round"/><path d="M307.44696,269.27074c1.43425,-2.4235 3.79179,-4.30065 6.73143,-5.05461c2.93964,-0.75396 5.90964,-0.24323 8.33328,1.19078c2.4235,1.43427 4.30068,3.79181 5.05464,6.73145c0.75397,2.93964 0.24321,5.90964 -1.1908,8.33328c-1.43426,2.42349 -3.79179,4.30067 -6.73143,5.05463c-2.93964,0.75396 -5.90964,0.24321 -8.33328,-1.1908c-2.42352,-1.43426 -4.30068,-3.7918 -5.05464,-6.73144c-0.75396,-2.93964 -0.24323,-5.90964 1.1908,-8.3333z" stroke="none" stroke-linecap="butt"/></g><g><path d="M313.9076,252.95212c-0.57783,0.15058 -1.1569,0.2946 -1.73708,0.43107c-1.26498,0.29806 -2.4855,0.73305 -3.69248,1.2097l-0.77662,-3.52673c1.74063,-0.47069 3.39366,-1.10717 5.13854,-1.76447z" fill="#fe0000" stroke="#000000" stroke-width="0" stroke-linecap="butt"/><path d="M314.72105,247.08284l1.82047,5.92452l-3.99238,1.68404l-1.57823,-6.16391z" fill="#ff5757" stroke="#fe0000" stroke-width="1" stroke-linecap="round"/></g></g><g data-paper-data="{&quot;origRot&quot;:0,&quot;index&quot;:null}" fill="#000000" stroke-width="0" stroke-linejoin="miter"><path d="M169.06228,265.55055l-6.13495,-1.7763l12.77196,-43.6691l3.23457,0.82961l-9.84841,44.72313z" stroke="#000000" stroke-linecap="round"/><path d="M172.55312,269.27074c1.43403,2.42366 1.94476,5.39366 1.1908,8.3333c-0.75396,2.93964 -2.63112,5.29718 -5.05464,6.73144c-2.42364,1.43401 -5.39364,1.94476 -8.33328,1.1908c-2.93964,-0.75396 -5.29717,-2.63114 -6.73143,-5.05463c-1.43401,-2.42364 -1.94477,-5.39364 -1.1908,-8.33328c0.75396,-2.93964 2.63114,-5.29718 5.05464,-6.73145c2.42364,-1.43401 5.39364,-1.94474 8.33328,-1.19078c2.93964,0.75396 5.29718,2.63111 6.73143,5.05461z" stroke="none" stroke-linecap="butt"/></g><g data-paper-data="{&quot;index&quot;:null}" stroke-linejoin="miter"><g data-paper-data="{&quot;index&quot;:null}"><g fill="#9a0000"><g data-paper-data="{&quot;index&quot;:null}" stroke="none" stroke-width="0.5" stroke-linecap="butt"><path d="M162.8604,152.25322c1.13789,9.74332 3.26236,19.4479 4.30453,29.23564c0.26114,2.45253 1.13175,8.48305 -0.36279,10.72337c-3.03807,4.55406 -10.68727,2.52705 -14.8039,1.5579c-7.76201,-4.86736 -14.99137,-13.35212 -13.79313,-23.24026c0.73239,-6.04388 4.82134,-10.94711 8.59489,-15.28646c2.58382,-2.97124 3.07045,-4.96373 6.75677,-6.87035c4.93021,-2.54998 12.31219,-1.12301 17.69326,-1.12301c0,0 2.5,0 2.5,2.5c0,2.5 -2.5,2.5 -2.5,2.5c-2.79648,0 -5.59311,0.00576 -8.38963,0.00319z"/><path d="M308.75005,152.25001c0,0 -2.5,0 -2.5,-2.5c0,-2.5 2.5,-2.5 2.5,-2.5c5.38108,0 12.76306,-1.42698 17.69326,1.12301c3.68631,1.90662 4.17294,3.89912 6.75677,6.87035c3.77355,4.33935 7.8625,9.24258 8.59489,15.28646c1.19824,9.88814 -6.03111,18.37291 -13.79313,23.24026c-4.11662,0.96916 -11.76583,2.99616 -14.8039,-1.5579c-1.49455,-2.24032 -0.62394,-8.27084 -0.3628,-10.72337c1.04217,-9.78773 3.16665,-19.49231 4.30453,-29.23563c-2.79652,0.00258 -5.59315,-0.00319 -8.38963,-0.00319z" data-paper-data="{&quot;index&quot;:null}"/></g><g stroke="#000000" stroke-width="0" stroke-linecap="round"><path d="M184.17233,108.8281c13.78596,-11.77097 35.48523,-16.21706 52.0519,-17.42063c9.95743,-0.7234 19.96541,4.67697 23.38162,5.40995c1.27993,0.27462 -10.95404,-3.63513 -18.05037,-2.62927c-14.78711,2.09597 -36.64826,8.93251 -51.97602,22.98624c-24.98122,22.90479 -36.32941,55.43276 -36.32941,55.43276c0,0 -2.06118,-7.64131 -0.10039,-17.1717c2.91639,-14.17506 12.30583,-33.56822 31.02267,-46.60735z" data-paper-data="{&quot;index&quot;:null}"/><path d="M326.85042,155.43545c1.96079,9.53039 -0.10039,17.1717 -0.10039,17.1717c0,0 -11.34819,-32.52797 -36.32941,-55.43276c-15.32776,-14.05373 -37.1889,-20.89027 -51.97602,-22.98624c-7.09634,-1.00585 -19.3303,2.90389 -18.05037,2.62927c3.41621,-0.73298 13.42419,-6.13335 23.38162,-5.40995c16.56667,1.20357 38.26594,5.64966 52.0519,17.42063c18.71684,13.03913 28.10628,32.43229 31.02267,46.60735z" data-paper-data="{&quot;index&quot;:null}"/></g></g><g><g data-paper-data="{&quot;index&quot;:null}"><path d="M154.14291,180.00001c0,-47.41752 38.43961,-85.85713 85.85713,-85.85713c47.41752,0 85.85713,38.43961 85.85713,85.85713c0,47.41752 -38.43961,85.85713 -85.85713,85.85713c-47.41752,0 -85.85713,-38.43961 -85.85713,-85.85713z" data-paper-data="{&quot;index&quot;:null}" fill="#fe0000" stroke="none" stroke-width="0.5" stroke-linecap="butt"/><path d="M260.43262,126.66271l27.14283,101.28572l-35.28174,3.92467l-3.61904,-16l-17.8691,-0.05955l-3.1428,17.52376l-37.14289,-3.90476l28.42856,-100.42856zM232.2846,188.36796l12.81867,-0.0485l-6.55951,-30.42856z" data-paper-data="{&quot;index&quot;:null}" fill="#ffffff" stroke="#000000" stroke-width="0" stroke-linecap="round"/></g><path d="M226.90007,109.17141l21.02857,-6.51428l-9.94285,11.88571l18.85713,-5.25714l-14.4,11.31428" data-paper-data="{&quot;index&quot;:null}" fill="none" stroke="#000000" stroke-width="0.5" stroke-linecap="round"/></g></g><g data-paper-data="{&quot;index&quot;:null}"><g data-paper-data="{&quot;index&quot;:null}" fill="#f70000" stroke="none" stroke-linecap="butt"><g><g stroke-width="0.5"><path d="M238.2246,105.31743l-1.23527,-0.00369c-4.58712,0.27252 -9.2246,0.28609 -13.82027,0.36857c-2.58005,0.04631 -6.40777,0.28678 -8.80242,-1.0911c-4.62459,-2.66097 -4.73716,-9.70373 -4.6031,-14.1383c0.2049,-6.77839 0.05296,-14.54414 2.63472,-20.9739c1.74418,-4.34378 2.49216,-5.06273 5.05864,-8.96824c3.75643,-2.76535 3.77707,-3.34257 8.46514,-4.53563c3.18508,-0.81058 14.40729,-1.58641 17.3692,0.40611c2.8912,1.94496 1.7366,8.26667 2.1189,11.27515c1.54065,12.12377 -0.55381,24.37757 -0.55294,36.54611c0,0 -1.90478,2.39126 -4.40478,2.39126c-1.30626,0 -1.92999,-0.65284 -2.22782,-1.2763z"/><path d="M241.7755,105.31743c-0.29783,0.62346 -0.92156,1.2763 -2.22782,1.2763c-2.5,0 -4.40478,-2.39126 -4.40478,-2.39126c0.00087,-12.16854 -2.09359,-24.42234 -0.55294,-36.54611c0.3823,-3.00848 -0.7723,-9.33019 2.1189,-11.27515c2.96191,-1.99252 14.18412,-1.21669 17.3692,-0.40611c4.68807,1.19306 4.70871,1.77029 8.46514,4.53563c2.56648,3.90551 3.31446,4.62447 5.05864,8.96824c2.58176,6.42977 2.42982,14.19552 2.63472,20.97391c0.13406,4.43457 0.02149,11.47733 -4.6031,14.1383c-2.39465,1.37788 -6.22237,1.13741 -8.80242,1.0911c-4.59567,-0.08248 -9.23315,-0.09605 -13.82027,-0.36857l-1.23527,0.00369z" data-paper-data="{&quot;index&quot;:null}"/></g><path d="M247.28576,54.93112c0,1.84892 -3.26193,3.34777 -7.28572,3.34777c-4.02379,0 -7.28572,-1.49885 -7.28572,-3.34777c0,-1.84892 3.26193,-3.34777 7.28572,-3.34777c4.02379,0 7.28572,1.49885 7.28572,3.34777z" stroke-width="0"/></g><path d="M284.1905,100.11455c0,4.42734 -19.78476,8.01642 -44.19049,8.01642c-24.40573,0 -44.19049,-3.58907 -44.19049,-8.01641c0,-4.42734 19.78476,-8.01641 44.19049,-8.01641c24.40573,0 44.1905,3.58906 44.1905,8.01641z" stroke-width="0"/></g><path d="M245.10239,65.3709l6.5974,23.54792l-8.57566,0.91245l-0.87965,-3.71985l-4.34331,-0.01384l-0.76389,4.0741l-9.02804,-0.90781l6.90992,-23.34865zM238.26066,79.71676l3.11574,-0.01128l-1.59437,-7.07434z" data-paper-data="{&quot;index&quot;:null}" fill="#ffffff" stroke="#000000" stroke-width="0" stroke-linecap="round"/></g></g><path d="M230.82154,166.50609c0,12.51845 -4.70101,22.66666 -10.5,22.66666c-5.79899,0 -10.5,-10.14821 -10.5,-22.66666c0,-12.51845 4.70101,-22.66666 10.5,-22.66666c5.79899,0 10.5,10.14821 10.5,22.66666z" data-paper-data="{&quot;index&quot;:null}" fill="#000000" stroke="none" stroke-width="0" stroke-linecap="butt" stroke-linejoin="miter"/><path d="M259.67859,143.83936c5.79899,0 10.5,10.14821 10.5,22.66666c0,12.51845 -4.70101,22.66666 -10.5,22.66666c-5.79899,0 -10.5,-10.14821 -10.5,-22.66666c0,-12.51845 4.70101,-22.66666 10.5,-22.66666z" data-paper-data="{&quot;index&quot;:null}" fill="#000000" stroke="none" stroke-width="0" stroke-linecap="butt" stroke-linejoin="miter"/><path d="M277.70286,141.75214l-0.07588,1.06227l-0.45526,0.94847l-0.91053,0.56907l-0.9864,0.18969l-0.9864,-0.03793l-0.64496,-0.03794l-0.56908,-0.41733l-0.75877,-1.74518l-1.36579,-2.35219l-0.91053,-1.51754l-1.82106,-2.20043l-1.25197,-1.21404l-1.21404,-0.75876l-1.02434,-0.6829l-0.83465,-0.41732l-1.44166,-0.60702l-1.63137,-0.4932l-1.63136,-0.30352h-1.9728l-2.35219,0.26557l-2.27632,0.41733l-1.28991,-0.18969l-0.68289,-0.60702l-0.07588,-0.72083l0.41733,-0.4932l0.91053,-0.64496l1.51754,-0.53113l2.99715,-0.45527l5.34933,-0.07587l2.23838,0.34144l2.23838,0.64496l1.06228,0.37938l1.63136,0.79671l1.32785,1.02434l1.44167,1.1761l1.1761,1.06229l0.94846,0.9864l1.59342,2.12456l1.6693,2.57982z" data-paper-data="{&quot;index&quot;:null}" fill="#000000" stroke="#000000" stroke-width="0" stroke-linecap="round" stroke-linejoin="miter"/><path d="M202.94219,139.81725l1.6693,-2.57982l1.59342,-2.12456l0.94846,-0.9864l1.1761,-1.06229l1.44167,-1.1761l1.32785,-1.02434l1.63136,-0.79671l1.06228,-0.37938l2.23838,-0.64496l2.23838,-0.34144l5.34933,0.07587l2.99715,0.45527l1.51754,0.53113l0.91053,0.64496l0.41733,0.4932l-0.07588,0.72083l-0.68289,0.60702l-1.28991,0.18969l-2.27632,-0.41733l-2.35219,-0.26557h-1.9728l-1.63136,0.30352l-1.63137,0.4932l-1.44166,0.60702l-0.83465,0.41732l-1.02434,0.6829l-1.21404,0.75876l-1.25197,1.21404l-1.82106,2.20043l-0.91053,1.51754l-1.36579,2.35219l-0.75877,1.74518l-0.56908,0.41733l-0.64496,0.03794l-0.9864,0.03793l-0.9864,-0.18969l-0.91053,-0.56907l-0.45526,-0.94847l-0.07588,-1.06227z" data-paper-data="{&quot;index&quot;:null}" fill="#000000" stroke="#000000" stroke-width="0" stroke-linecap="round" stroke-linejoin="miter"/><path d="M252.12507,205.50052c-21.6,8.7 -37.68333,4.51666 -48.25,-12.55" data-paper-data="{&quot;index&quot;:null}" fill="none" stroke="#000000" stroke-width="3" stroke-linecap="round" stroke-linejoin="round"/><text transform="translate(172.64754,320.82339) scale(0.21386,0.21386)" font-size="40" xml:space="preserve" data-paper-data="{&quot;index&quot;:null}" fill="#fe0000" fill-rule="nonzero" stroke="#810000" stroke-width="5" stroke-linecap="butt" stroke-linejoin="miter" stroke-miterlimit="10" stroke-dasharray="" stroke-dashoffset="0" font-family="Sans Serif" font-weight="normal" text-anchor="start" style="mix-blend-mode: normal"><tspan x="0" dy="0">                 Alax Gregory</tspan><tspan x="0" dy="48px">                 Role: Toodles</tspan><tspan x="0" dy="48px">Owner: Lucas Reed (Alma's Way)</tspan><tspan x="0" dy="48px">                VA: Blake (Me) </tspan></text></g></g></svg>