<svg version="1.1" xmlns="http://www.w3.org/2000/svg" xmlns:xlink="http://www.w3.org/1999/xlink" width="160.55554" height="415.78672" viewBox="0,0,160.55554,415.78672"><defs><linearGradient x1="215.27134" y1="214.16142" x2="215.27134" y2="265.63894" gradientUnits="userSpaceOnUse" id="color-1"><stop offset="0" stop-color="#ff0000"/><stop offset="1" stop-color="#181818"/></linearGradient><linearGradient x1="215.27134" y1="214.16142" x2="215.27134" y2="265.63894" gradientUnits="userSpaceOnUse" id="color-2"><stop offset="0" stop-color="#7e0000"/><stop offset="1" stop-color="#a260c2"/></linearGradient><linearGradient x1="218.78603" y1="178.79833" x2="218.78603" y2="226.21709" gradientUnits="userSpaceOnUse" id="color-3"><stop offset="0" stop-color="#ff0000"/><stop offset="1" stop-color="#c90505"/></linearGradient><linearGradient x1="218.78603" y1="178.79833" x2="218.78603" y2="226.21709" gradientUnits="userSpaceOnUse" id="color-4"><stop offset="0" stop-color="#7e0000"/><stop offset="1" stop-color="#871932"/></linearGradient><radialGradient cx="268.35715" cy="146.58963" r="7.42856" gradientUnits="userSpaceOnUse" id="color-5"><stop offset="0" stop-color="#ff9a9a"/><stop offset="1" stop-color="#ff9a9a" stop-opacity="0"/></radialGradient><radialGradient cx="211.64286" cy="146.58963" r="7.42856" gradientUnits="userSpaceOnUse" id="color-6"><stop offset="0" stop-color="#ff9a9a"/><stop offset="1" stop-color="#ff9a9a" stop-opacity="0"/></radialGradient></defs><g transform="translate(-159.72223,27.64327)"><g data-paper-data="{&quot;isPaintingLayer&quot;:true}" fill-rule="nonzero" stroke-miterlimit="10" stroke-dasharray="" stroke-dashoffset="0" style="mix-blend-mode: normal"><path d="M274.12784,184.15691l12.79913,120.37572l-93.85393,-2.24025l13.87149,-117.61394z" data-paper-data="{&quot;index&quot;:null}" fill="#da2f2f" stroke="#6c1818" stroke-width="0.5" stroke-linecap="round" stroke-linejoin="miter"/><g stroke-width="1.5" stroke-linejoin="miter"><g><path d="M200.14287,287.21305c-3.71181,-2.62462 -0.17959,-30.42529 14.31978,-29.694c11.27849,1.17353 12.85875,16.85368 12.6105,23.84389c-0.02412,0.67934 -0.43773,3.45901 -3.82534,3.25364c-1.33033,-0.08065 -2.00889,-2.85649 -2.89727,-3.66721c-0.80647,-0.73597 -1.88635,0.48254 -1.88635,0.48254c0,0 -0.33054,7.21729 -0.99608,9.87667c-0.46791,1.86969 -3.95398,1.64242 -4.34027,-0.61251c-0.42838,-2.50062 -0.13768,-9.0506 -0.11706,-7.89288c0.03367,1.89064 0.0127,5.59289 -0.33114,7.96931c-0.01969,0.13608 0.13164,2.89401 -0.64599,3.68926c-1.30692,1.33651 -3.84759,0.77842 -4.08632,-0.44906c-0.7177,-3.6903 0.89726,-11.46291 0.54187,-11.68758c-0.11612,-0.07342 -0.85909,9.5028 -1.09709,9.84525c-0.34386,0.4948 -2.44897,1.8184 -3.29079,0.78218c-0.84182,-1.03621 -0.48316,-3.80677 -0.28849,-5.18795c0.41342,-2.93296 1.46907,-5.74322 1.21638,-5.56537c-0.06149,0.04328 -0.3219,4.73446 -2.20124,5.37442c-0.38781,0.13206 -2.30348,-0.09076 -2.68509,-0.36059z" data-paper-data="{&quot;index&quot;:null}" fill="#181818" stroke="#a25fbf" stroke-linecap="butt"/><path d="M203.11907,264.82725c0,0 2.18864,-26.51399 3.33392,-40.38806c1.21747,-14.74872 22.11599,-13.15578 20.9213,1.77791c-1.09636,13.70459 -3.15375,39.42184 -3.15375,39.42184" fill="#ffcd98" stroke="#80674d" stroke-linecap="round"/><path d="M203.11907,264.82725c0,0 2.18864,-26.51399 3.33392,-40.38806c1.21747,-14.74872 22.11599,-13.15578 20.9213,1.77791c-1.09636,13.70459 -3.15375,39.42184 -3.15375,39.42184z" fill="url(#color-1)" stroke="url(#color-2)" stroke-linecap="round"/></g><g stroke-linecap="round"><path d="M206.45298,224.43919c1.21747,-14.74872 3.76753,-45.64086 3.76753,-45.64086l20.89856,0.60869c0,0 -2.5501,31.87639 -3.74479,46.81007" fill="#ffcd98" stroke="#80674d"/><path d="M206.45298,224.43919c1.21747,-14.74872 3.76753,-45.64086 3.76753,-45.64086l20.89856,0.60869c0,0 -2.5501,31.87639 -3.74479,46.81007" fill="url(#color-3)" stroke="url(#color-4)"/></g></g><g stroke-width="1.5" stroke-linejoin="miter"><g><path d="M279.85715,287.21306c-0.38161,0.26983 -2.29728,0.49265 -2.68509,0.36059c-1.87934,-0.63996 -2.13975,-5.33114 -2.20124,-5.37442c-0.25269,-0.17785 0.80296,2.63241 1.21638,5.56537c0.19467,1.38118 0.55333,4.15174 -0.28849,5.18795c-0.84182,1.03622 -2.94693,-0.28738 -3.29079,-0.78218c-0.238,-0.34245 -0.98097,-9.91867 -1.09709,-9.84525c-0.35539,0.22467 1.25957,7.99728 0.54187,11.68758c-0.23873,1.22748 -2.7794,1.78557 -4.08632,0.44906c-0.77763,-0.79525 -0.6263,-3.55318 -0.64599,-3.68926c-0.34384,-2.37642 -0.36481,-6.07867 -0.33114,-7.96931c0.02062,-1.15772 0.31132,5.39226 -0.11706,7.89288c-0.38629,2.25493 -3.87236,2.4822 -4.34027,0.61251c-0.66554,-2.65938 -0.99608,-9.87667 -0.99608,-9.87667c0,0 -1.07988,-1.21851 -1.88635,-0.48254c-0.88838,0.81072 -1.56694,3.58656 -2.89727,3.66721c-3.38761,0.20537 -3.80122,-2.5743 -3.82534,-3.25364c-0.24825,-6.99021 1.33201,-22.67036 12.6105,-23.84389c14.49937,-0.73129 18.03159,27.06938 14.31978,29.694z" data-paper-data="{&quot;index&quot;:null}" fill="#ffcd98" stroke="#80674d" stroke-linecap="butt"/><g><g><path d="M255.77949,265.63894c0,0 -2.05739,-25.71725 -3.15375,-39.42184c-1.19469,-14.93369 19.70383,-16.52663 20.9213,-1.77791c1.14528,13.87407 3.33392,40.38806 3.33392,40.38806" fill="#ffcd98" stroke="#80674d" stroke-linecap="round"/><g stroke="#ff0000"><path d="M274.58301,236.98916c0.28195,3.41569 0.84642,10.25386 0.84642,10.25386l-20.9195,2.52649l-0.77818,-9.72713c0,0 20.0326,-3.0221 20.85125,-3.05322z" fill="#ff0000" stroke-linecap="butt"/><path d="M273.36906,231.80402l2.2857,21.80953l-17.04762,1.33333l-2.47619,-21.80952z" fill="#ff7f7f" stroke-linecap="round"/></g></g><path d="M255.77949,265.63894c0,0 -2.05739,-25.71725 -3.15375,-39.42184c-1.19469,-14.93369 19.70383,-16.52663 20.9213,-1.77791c1.14528,13.87407 3.33392,40.38806 3.33392,40.38806z" fill="#ff0000" stroke="#7e0000" stroke-linecap="round"/></g></g><g data-paper-data="{&quot;index&quot;:null}" stroke-linecap="round"><path d="M252.62575,226.21715c-1.19469,-14.93368 -3.74479,-46.81007 -3.74479,-46.81007l20.89856,-0.60869c0,0 2.55006,30.89214 3.76753,45.64086" fill="#ffcd98" stroke="#80674d"/><path d="M252.62575,226.21715c-1.19469,-14.93368 -3.74479,-46.81007 -3.74479,-46.81007l20.89856,-0.60869c0,0 2.55006,30.89214 3.76753,45.64086" fill="#ff0000" stroke="#7e0000"/></g></g><g data-paper-data="{&quot;index&quot;:null}" stroke-linecap="butt" stroke-linejoin="miter"><g data-paper-data="{&quot;index&quot;:null}"><g stroke-width="1.5"><path d="M210.18601,370.55616v-32.8277c0,0 -1.3815,-23.81666 12.90935,-23.81666c14.29085,0 12.20175,23.81667 12.20175,23.81667v32.8277z" fill="#ffcd98" stroke="#80674d"/><path d="M210.186,370.55616v-22.88887h25.1111v22.88887z" fill="#ff9595" stroke="#ff5959"/></g><path d="M205.62071,387.14346v-4.58333c0,0 -2.01772,-20.2059 16.81861,-20.30795c19.37082,-0.10494 16.44805,20.30795 16.44805,20.30795v4.58333z" fill="#ff0000" stroke="#7e0000" stroke-width="2"/><path d="M205.62071,387.14343v-4.58333h33.26666v4.58333z" fill="#ff9595" stroke="#500000" stroke-width="0"/><path d="M205.62071,387.14343v-4.58333c0,0 -2.01772,-20.2059 16.81861,-20.30795c19.37082,-0.10494 16.44805,20.30795 16.44805,20.30795v4.58333z" fill="none" stroke="#800000" stroke-width="2"/><path d="M215.0582,371.47958v-2.95238h13.42857v2.95238z" fill="#800000" stroke="#3f0000" stroke-width="0"/><path d="M213.78737,378.14348v-3.58333h15.9164v3.58333z" fill="#800000" stroke="#3f0000" stroke-width="0"/></g><g data-paper-data="{&quot;index&quot;:null}" stroke="#80674d"><path d="M210.18602,335.73395v-33.54422h25.1111v33.54422z" fill="#ffcd98" stroke-width="0"/><path d="M210.18601,335.73395v-33.54422h25.1111v33.54422" fill="none" stroke-width="1.5"/></g></g><g data-paper-data="{&quot;index&quot;:null}" stroke="#a260c2" stroke-linecap="butt" stroke-linejoin="miter"><g data-paper-data="{&quot;index&quot;:null}"><g fill="#181818" stroke-width="1.5"><path d="M244.70289,370.55617v-32.8277c0,0 -2.0891,-23.81667 12.20175,-23.81667c14.29085,0 12.90935,23.81666 12.90935,23.81666v32.8277z"/><path d="M244.7029,370.55616v-22.88887h25.1111v22.88887z"/></g><path d="M241.11263,387.14346v-4.58333c0,0 -2.92277,-20.41289 16.44805,-20.30795c18.83633,0.10205 16.81861,20.30795 16.81861,20.30795v4.58333z" fill="#181818" stroke-width="2"/><path d="M241.11263,387.14343v-4.58333h33.26666v4.58333z" fill="#181818" stroke-width="0"/><path d="M241.11263,387.14343v-4.58333c0,0 -2.92277,-20.41289 16.44805,-20.30795c18.83633,0.10205 16.81861,20.30795 16.81861,20.30795v4.58333z" fill="#181818" stroke-width="2"/><path d="M251.51323,371.47958v-2.95238h13.42857v2.95238z" fill="#a260c2" stroke-width="0"/><path d="M250.29623,378.14348v-3.58333h15.9164v3.58333z" fill="#a260c2" stroke-width="0"/></g><g data-paper-data="{&quot;index&quot;:null}" fill="#181818"><path d="M244.70288,335.73395v-33.54422h25.1111v33.54422z" stroke-width="0"/><path d="M244.70289,335.73395v-33.54422h25.1111v33.54422" stroke-width="1.5"/></g></g><g data-paper-data="{&quot;index&quot;:null}" stroke-linejoin="miter"><g><g data-paper-data="{&quot;index&quot;:null}"><path d="M209.99341,291.94651v-104.09963h60.01318v104.09964z" fill="#ff0000" stroke="#7f0000" stroke-width="1.5" stroke-linecap="butt"/><g><text transform="translate(220.6299,259.4328) scale(0.25683,0.27698)" font-size="40" xml:space="preserve" fill="#7f0000" fill-rule="nonzero" stroke="#410000" stroke-width="1.5" stroke-linecap="butt" stroke-linejoin="miter" stroke-miterlimit="10" stroke-dasharray="" stroke-dashoffset="0" font-family="Marker" font-weight="normal" text-anchor="start" style="mix-blend-mode: normal"><tspan x="0" dy="0">Be Kool,</tspan><tspan x="0" dy="46.15px"> Guyz!</tspan></text><g><g data-paper-data="{&quot;index&quot;:null}" stroke-width="1.5"><path d="M221.49999,222.62856l-0.06667,-25.60591l10.13334,7.13478l4.46666,-9.90941l5.4,8.32391l5.4,-8.00681l4.06667,9.75087l7.6,-7.21406l0.06667,24.41679z" fill="#ffffab" stroke="#7f7f00" stroke-linecap="round"/><g stroke-linecap="butt"><g><g stroke="#7f7f00"><path d="M261.11704,226.47006c0,11.74035 -9.45442,21.25778 -21.11706,21.25778c-11.66264,0 -21.11704,-9.51743 -21.11704,-21.25777c0,-11.74035 9.45442,-21.25779 21.11704,-21.25779c11.66264,0 21.11706,9.51744 21.11706,21.25779z" fill="#fffe00"/><path d="M239.989,205.21228c8.93079,0 16.5667,5.58092 19.65395,13.46728c-0.20833,-0.02693 -3.07439,-1.23794 -5.14471,-0.42778c-3.05169,1.19419 -5.71472,4.44259 -6.53485,3.25893c-3.52807,-5.09197 -8.22557,0.49079 -8.22557,0.49079c0,0 -3.89487,-2.69624 -5.66079,-3.32106c-3.55668,-1.25844 -6.45816,3.43965 -6.45816,3.43965c0,0 -4.08812,-4.82756 -7.26183,-3.49644c3.10139,-7.85681 10.7223,-13.41137 19.63196,-13.41137z" fill="#ffffab"/></g><path d="M239.04827,224.26991c0,4.94314 -3.55685,8.95034 -7.94445,8.95034c-4.3876,0 -7.94445,-4.0072 -7.94445,-8.95034c0,-4.94314 3.55686,-8.95034 7.94445,-8.95034c4.3876,0 7.94445,4.0072 7.94445,8.95034z" fill="#ffffff" stroke="#616100"/><path d="M248.89636,215.31953c4.38759,0 7.94445,4.0072 7.94445,8.95034c0,4.94314 -3.55685,8.95034 -7.94445,8.95034c-4.3876,0 -7.94445,-4.0072 -7.94445,-8.95034c0,-4.94314 3.55685,-8.95034 7.94445,-8.95034z" fill="#ffffff" stroke="#616100"/></g><path d="M242.54174,233.65907c0,1.08132 -1.13794,1.95791 -2.54166,1.95791c-1.40373,0 -2.54167,-0.87657 -2.54167,-1.95791c0,-1.08132 1.13795,-1.95792 2.54167,-1.95792c1.40373,0 2.54166,0.87658 2.54166,1.95792z" fill="#fffe00" stroke="#7f7f00"/></g></g><g stroke-linecap="butt"><path d="M235.80704,224.88975c0,2.63518 -1.79086,4.77144 -4,4.77144c-2.20914,0 -4,-2.13624 -4,-4.77144c0,-2.63518 1.79086,-4.77143 4,-4.77143c2.20914,0 4,2.13625 4,4.77143z" fill="#000000" stroke="#005fff" stroke-width="1"/><path d="M232.45637,223.33691c0,0.98643 -0.67836,1.7861 -1.51515,1.7861c-0.83679,0 -1.51515,-0.79967 -1.51515,-1.7861c0,-0.98643 0.67836,-1.7861 1.51515,-1.7861c0.83679,0 1.51515,0.79967 1.51515,1.7861z" fill="#ffffff" stroke="#000000" stroke-width="0.5"/></g><g data-paper-data="{&quot;index&quot;:null}" stroke-linecap="butt"><path d="M252.19316,224.88975c0,2.63518 -1.79086,4.77144 -4,4.77144c-2.20914,0 -4,-2.13624 -4,-4.77144c0,-2.63518 1.79086,-4.77143 4,-4.77143c2.20914,0 4,2.13625 4,4.77143z" fill="#000000" stroke="#005fff" stroke-width="1"/><path d="M248.84252,223.33691c0,0.98643 -0.67836,1.7861 -1.51515,1.7861c-0.83679,0 -1.51515,-0.79967 -1.51515,-1.7861c0,-0.98643 0.67836,-1.7861 1.51515,-1.7861c0.83679,0 1.51515,0.79967 1.51515,1.7861z" fill="#ffffff" stroke="#000000" stroke-width="0.5"/></g><path d="M225.08294,215.3068c0,0 1.60554,-2.61969 6.14087,-2.61035c4.49749,0.00926 5.09276,2.54395 5.09276,2.54395" fill="none" stroke="#484800" stroke-width="1.5" stroke-linecap="round"/><path d="M253.50661,211.81604l-10.17857,2.81841" data-paper-data="{&quot;index&quot;:null}" fill="none" stroke="#484800" stroke-width="1.5" stroke-linecap="round"/><path d="M250.46678,235.90453c0,0 -0.37951,5.00291 -10.39096,5.03713c-8.93542,0.03054 -10.78821,-5.20945 -10.78821,-5.20945" fill="none" stroke="#484800" stroke-width="1.5" stroke-linecap="round"/><g fill="#000000" stroke="#000000" stroke-width="1.5"><path d="M265.72024,216.10301v4.03103h-51.44047v-4.03103z" stroke-linecap="butt"/><path d="M257.08295,217.62111c0,0 2.80125,17.95375 -10.24074,15.58996c-8.57775,-1.80213 -7.25926,-10.78029 -7.25926,-10.78029c0,0 1.79736,10.98571 -6.44445,10.69735c-12.86684,0.77749 -11.03703,-15.50702 -11.03703,-15.50702z" stroke-linecap="round"/></g></g></g></g><g data-paper-data="{&quot;index&quot;:null}" fill="#0300ff" stroke="#02007f" stroke-width="1.5" stroke-linecap="butt"><path d="M209.76944,331.86618v-44.14483h60.50271v44.14483h-25.41493l-4.36227,-17.57804l-3.98294,17.57804z"/><g><path d="M215.47076,301.67566c0.04157,2.20035 0.05296,4.40676 0,6.60607c-0.12459,5.17444 -2.92234,5.70057 -5.70132,5.67357c0,0 0,-11.37165 0,-13.44993c0,-0.37309 2.00065,-0.82981 3.63173,-0.5781c1.11022,0.17133 2.04923,0.67088 2.06959,1.7484z"/><path d="M266.64043,299.92735c1.6311,-0.25171 3.63173,0.20501 3.63173,0.5781c0,2.07828 0,13.44993 0,13.44993c-2.77898,0.027 -5.57673,-0.49913 -5.70132,-5.67357c-0.05296,-2.1993 -0.04158,-4.40572 0,-6.60607c0.02035,-1.07752 0.95937,-1.57707 2.06959,-1.7484z" data-paper-data="{&quot;index&quot;:null}"/></g></g></g><g><path d="M271.18513,284.72094v10.9276h-62.37026v-10.92761z" fill="#ed3446" stroke="#761a23" stroke-width="0.25" stroke-linecap="butt"/><g><g><g data-paper-data="{&quot;index&quot;:null}" fill="#b51979" stroke="#5a0d3c" stroke-width="0.25" stroke-linecap="round"><path d="M221.64804,275.73913c2.01848,0.30817 10.43739,3.79012 10.43739,3.79012l-0.09104,21.90985c0,0 -8.66494,2.7839 -10.70112,2.92643c-0.28212,0.01968 -0.47992,-0.29895 -0.26057,-0.60594c1.52256,-2.13085 4.61309,-5.6593 6.14407,-7.38013c-2.56919,-0.19158 -8.17866,-0.64887 -9.67998,-1.10062c-0.27121,-0.08164 -0.34802,-0.45123 -0.03767,-0.66118c2.02375,-1.36883 5.73994,-3.25211 7.86454,-4.29681c-2.1246,-1.04468 -5.84079,-2.92795 -7.86454,-4.29681c-0.31039,-0.20994 -0.23359,-0.57956 0.03767,-0.66116c1.44927,-0.4361 6.78385,-0.881 9.46414,-1.0838c-1.36651,-1.80578 -4.24773,-5.67332 -5.61978,-7.95726c-0.18241,-0.30364 0.00098,-0.58758 0.25509,-0.58673c0.01695,0.00006 0.03433,0.00134 0.05181,0.00402z"/><path d="M258.40376,275.7351c0.25412,-0.00084 0.4375,0.28309 0.25509,0.58673c-1.37205,2.28394 -4.25328,6.15148 -5.61978,7.95725c2.68029,0.20281 8.01487,0.64772 9.46414,1.08381c0.27127,0.0816 0.34806,0.45122 0.03767,0.66117c-2.02375,1.36884 -5.73994,3.25211 -7.86454,4.2968c2.1246,1.04468 5.84079,2.92797 7.86454,4.2968c0.31034,0.20994 0.23354,0.57954 -0.03767,0.66117c-1.50131,0.45175 -7.1108,0.90904 -9.67998,1.10062c1.53098,1.72083 4.6215,5.24928 6.14406,7.38013c0.21936,0.30699 0.02156,0.62561 -0.26056,0.60594c-2.03618,-0.14254 -10.70112,-2.92643 -10.70112,-2.92643l-0.09104,-21.90983c0,0 8.4189,-3.48196 10.43738,-3.79013c0.01749,-0.00268 0.03486,-0.00395 0.05181,-0.00401z"/></g><g data-paper-data="{&quot;index&quot;:null}" stroke-linecap="butt"><g><path d="M245.53853,303.74163c-0.69062,0.27033 -10.35325,0.32581 -11.10371,0c-0.75044,-0.32581 -7.46923,-7.348 -7.85151,-8.0072c-0.29938,-0.51624 -0.22859,-10.7859 0,-11.32389c0.26129,-0.61496 7.31622,-7.64274 7.85151,-8.00719c0.53422,-0.36372 10.62064,-0.34948 11.10371,0c0.45309,0.3278 7.51774,7.29415 7.85151,8.00719c0.3075,0.65695 0.29363,10.71708 0,11.32389c-0.30868,0.63792 -7.17921,7.74403 -7.85151,8.0072z" data-paper-data="{&quot;index&quot;:null}" fill="#b12b96" stroke="#57154a" stroke-width="0.25"/><g><g stroke="#000000" stroke-width="0"><path d="M245.27562,303.09166c-0.65783,0.2575 -9.86171,0.31034 -10.57654,0c-0.71481,-0.31032 -7.11461,-6.99914 -7.47875,-7.62703c-0.28517,-0.49173 -0.21773,-10.27382 0,-10.78626c0.24889,-0.58577 6.96886,-7.27988 7.47875,-7.62704c0.50886,-0.34645 10.11641,-0.33289 10.57654,0c0.43158,0.31223 7.16082,6.94785 7.47874,7.62704c0.29291,0.62575 0.2797,10.20826 0,10.78626c-0.29403,0.60762 -6.83835,7.37637 -7.47874,7.62703z" fill="#e437c2"/><path d="M252.96912,289.99969c0.00003,2.57579 -0.07327,5.17247 -0.21475,5.46485c-0.29403,0.60762 -6.83835,7.37637 -7.47874,7.62703c-0.65783,0.2575 -9.86171,0.31034 -10.57655,0c-0.7148,-0.31032 -7.1146,-6.99914 -7.47874,-7.62703c-0.14406,-0.24839 -0.19813,-2.86739 -0.18831,-5.46467z" fill="#cc31ad"/><path d="M239.93128,289.99987l5.34431,13.09179c-0.65783,0.2575 -9.8617,0.31034 -10.57654,0z" fill="#b12b96"/><path d="M239.93128,289.99987l-5.23222,-12.94855c0.50886,-0.34645 10.11641,-0.33289 10.57654,0z" fill="#ff3cd8"/></g><g fill="none" stroke-width="0.25"><path d="M245.27562,303.09166c-0.65783,0.2575 -9.86171,0.31034 -10.57654,0c-0.71481,-0.31032 -7.11461,-6.99914 -7.47875,-7.62703c-0.28517,-0.49173 -0.21773,-10.27382 0,-10.78627c0.24889,-0.58577 6.96886,-7.27988 7.47875,-7.62704c0.50886,-0.34645 10.11641,-0.33289 10.57654,0c0.43158,0.31223 7.16082,6.94785 7.47874,7.62704c0.29291,0.62575 0.2797,10.20827 0,10.78627c-0.29403,0.60762 -6.83835,7.37637 -7.47874,7.62703z" stroke="#711b60"/><path d="M252.96912,289.99969c0.00003,2.57579 -0.07327,5.17246 -0.21475,5.46485c-0.29403,0.60762 -6.83835,7.37637 -7.47874,7.62704c-0.65783,0.2575 -9.86171,0.31034 -10.57655,0c-0.7148,-0.31032 -7.1146,-6.99915 -7.47874,-7.62704c-0.14406,-0.24839 -0.19813,-2.86738 -0.18831,-5.46466" stroke="#671957"/><path d="M245.27559,303.09166c-0.65783,0.2575 -9.8617,0.31034 -10.57654,0" stroke="#58154a"/><path d="M234.69906,277.05127c0.50886,-0.34645 10.11641,-0.33289 10.57654,0" stroke="#811f6d"/></g></g></g><path d="M244.02356,299.99674c-0.50171,0.19639 -7.52126,0.23669 -8.06645,0c-0.54516,-0.23669 -5.42613,-5.33808 -5.70385,-5.81696c-0.21749,-0.37503 -0.16606,-7.83557 0,-8.2264c0.18982,-0.44674 5.31498,-5.55219 5.70385,-5.81696c0.38809,-0.26424 7.71552,-0.25387 8.06645,0c0.32916,0.23813 5.46137,5.29896 5.70385,5.81696c0.22339,0.47725 0.21331,7.78558 0,8.2264c-0.22424,0.46342 -5.21544,5.62578 -5.70385,5.81696z" fill="#ff3cd8" stroke="#7f1f6c" stroke-width="0.25"/></g></g><g data-paper-data="{&quot;index&quot;:null}"><text transform="translate(235.84318,295.45421) scale(0.05512,0.06083)" font-size="40" xml:space="preserve" fill="#7f0000" fill-rule="nonzero" stroke="#410000" stroke-width="0.5" stroke-linecap="butt" stroke-linejoin="miter" stroke-miterlimit="10" stroke-dasharray="" stroke-dashoffset="0" font-family="Marker" font-weight="normal" text-anchor="start" style="mix-blend-mode: normal"><tspan x="0" dy="0">Be Kool,</tspan><tspan x="0" dy="46.15px"> Guyz!</tspan></text><g stroke-width="0.25"><g data-paper-data="{&quot;index&quot;:null}"><path d="M236.02991,287.37104l-0.01431,-5.62371l2.17462,1.56698l0.95854,-2.17636l1.15884,1.82815l1.15884,-1.7585l0.87271,2.14154l1.63096,-1.58438l0.01431,5.36256z" fill="#ffffab" stroke="#7f7f00" stroke-linecap="round"/><g stroke-linecap="butt"><g><g stroke="#7f7f00"><path d="M244.53172,288.21477c0,2.57849 -2.02893,4.66875 -4.53172,4.66875c-2.5028,0 -4.53171,-2.09027 -4.53171,-4.66875c0,-2.57849 2.02891,-4.66876 4.53171,-4.66876c2.5028,0 4.53172,2.09028 4.53172,4.66876z" fill="#fffe00"/><path d="M239.99764,283.54598c1.91655,0 3.55521,1.22572 4.21773,2.95776c-0.0447,-0.00591 -0.65976,-0.27188 -1.10405,-0.09395c-0.6549,0.26227 -1.22638,0.97571 -1.40238,0.71574c-0.75713,-1.11832 -1.76521,0.1078 -1.76521,0.1078c0,0 -0.83584,-0.59217 -1.21481,-0.7294c-0.76326,-0.27639 -1.38592,0.75544 -1.38592,0.75544c0,0 -0.87732,-1.06026 -1.55839,-0.7679c0.66556,-1.72555 2.30101,-2.94549 4.21302,-2.94549z" fill="#ffffab"/></g><path d="M239.79576,287.73161c0,1.08564 -0.7633,1.96572 -1.70488,1.96572c-0.94158,0 -1.70488,-0.88008 -1.70488,-1.96572c0,-1.08564 0.7633,-1.96573 1.70488,-1.96573c0.94158,0 1.70488,0.88009 1.70488,1.96573z" fill="#ffffff" stroke="#616100"/><path d="M241.90917,285.76581c0.94158,0 1.70487,0.88009 1.70487,1.96572c0,1.08564 -0.7633,1.96572 -1.70487,1.96572c-0.94158,0 -1.70488,-0.88008 -1.70488,-1.96572c0,-1.08564 0.7633,-1.96572 1.70488,-1.96572z" fill="#ffffff" stroke="#616100"/></g><path d="M240.54546,289.79366c0,0.23749 -0.2442,0.43001 -0.54544,0.43001c-0.30124,0 -0.54544,-0.19251 -0.54544,-0.43001c0,-0.23749 0.24421,-0.43001 0.54544,-0.43001c0.30124,0 0.54544,0.19251 0.54544,0.43001z" fill="#fffe00" stroke="#7f7f00"/></g></g><g stroke-linecap="butt"><path d="M239.10019,287.86771c0,0.57876 -0.38432,1.04794 -0.8584,1.04794c-0.47408,0 -0.8584,-0.46917 -0.8584,-1.04794c0,-0.57876 0.38432,-1.04793 0.8584,-1.04793c0.47408,0 0.8584,0.46918 0.8584,1.04793z" fill="#000000" stroke="#005fff"/><path d="M238.38114,287.52664c0,0.21664 -0.14557,0.39227 -0.32514,0.39227c-0.17957,0 -0.32515,-0.17562 -0.32515,-0.39227c0,-0.21664 0.14558,-0.39228 0.32515,-0.39228c0.17957,0 0.32514,0.17563 0.32514,0.39228z" fill="#ffffff" stroke="#000000"/></g><g data-paper-data="{&quot;index&quot;:null}" stroke-linecap="butt"><path d="M242.61665,287.86771c0,0.57876 -0.38432,1.04794 -0.8584,1.04794c-0.47408,0 -0.8584,-0.46917 -0.8584,-1.04794c0,-0.57876 0.38432,-1.04793 0.8584,-1.04793c0.47408,0 0.8584,0.46918 0.8584,1.04793z" fill="#000000" stroke="#005fff"/><path d="M241.8976,287.52664c0,0.21664 -0.14557,0.39227 -0.32515,0.39227c-0.17957,0 -0.32515,-0.17562 -0.32515,-0.39227c0,-0.21664 0.14557,-0.39228 0.32515,-0.39228c0.17957,0 0.32515,0.17563 0.32515,0.39228z" fill="#ffffff" stroke="#000000"/></g><path d="M236.7988,285.76304c0,0 0.34455,-0.57534 1.31783,-0.5733c0.96516,0.00203 1.09291,0.55871 1.09291,0.55871" fill="none" stroke="#484800" stroke-linecap="round"/><path d="M242.89852,284.99638l-2.18431,0.619" data-paper-data="{&quot;index&quot;:null}" fill="none" stroke="#484800" stroke-linecap="round"/><path d="M242.24618,290.28686c0,0 -0.08144,1.09877 -2.2299,1.10629c-1.91754,0.0067 -2.31515,-1.14414 -2.31515,-1.14414" fill="none" stroke="#484800" stroke-linecap="round"/><g fill="#000000" stroke="#000000"><path d="M245.51956,285.93791v0.88531h-11.03912v-0.88531z" stroke-linecap="butt"/><path d="M243.666,286.27128c0,0 0.60115,3.94311 -2.19766,3.42397c-1.84078,-0.39578 -1.55783,-2.36764 -1.55783,-2.36764c0,0 0.38571,2.41275 -1.38298,2.34941c-2.76122,0.17076 -2.36855,-3.40574 -2.36855,-3.40574z" stroke-linecap="round"/></g></g></g></g></g></g><g data-paper-data="{&quot;index&quot;:null}" stroke-linecap="butt" stroke-linejoin="miter"><g stroke-width="2"><g><g fill="#ffcd98" stroke="#80674d"><path d="M170.72223,147.1986c-5.52285,0 -10,-5.99645 -10,-13.39345c0,-7.397 4.47715,-13.39345 10,-13.39345c5.52285,0 10,5.99645 10,13.39345c0,7.397 -4.47715,13.39345 -10,13.39345z" data-paper-data="{&quot;index&quot;:null}"/><path d="M299.27777,133.80516c0,-7.397 4.47715,-13.39345 10,-13.39345c5.52285,0 10,5.99645 10,13.39345c0,7.397 -4.47715,13.39345 -10,13.39345c-5.52285,0 -10,-5.99645 -10,-13.39345z" data-paper-data="{&quot;index&quot;:null}"/></g><g data-paper-data="{&quot;index&quot;:null}"><g><g><path d="M309.94539,123.82948c0,39.67507 -31.31561,71.83805 -69.94538,71.83805c-38.62976,0 -69.94537,-32.16298 -69.94537,-71.83805c0,-39.67506 31.31561,-71.83803 69.94537,-71.83803c38.62976,0 69.94538,32.16298 69.94538,71.83803z" fill="#ffcd98" stroke="#80674d"/><path d="M219.84878,99.11532c10.91074,0 19.75565,8.86595 19.75565,19.80263c0,10.93668 -8.84491,19.80264 -19.75565,19.80264c-10.91074,0 -19.75563,-8.86595 -19.75563,-19.80264c0,-10.93668 8.84489,-19.80263 19.75563,-19.80263z" fill="#ffffff" stroke="#000000"/><path d="M279.90688,118.91796c0,10.93668 -8.84489,19.80264 -19.75563,19.80264c-10.91074,0 -19.75564,-8.86595 -19.75564,-19.80264c0,-10.93668 8.8449,-19.80263 19.75564,-19.80263c10.91074,0 19.75563,8.86595 19.75563,19.80263z" data-paper-data="{&quot;index&quot;:null}" fill="#ffffff" stroke="#000000"/></g><g stroke="#000000"><path d="M168.15873,121.14434v-3.25944h143.68254v3.25944z" fill="#000000"/><g fill="#ffffff"><path d="M219.84877,99.1153c10.91074,0 19.75565,8.86595 19.75565,19.80264c0,10.93668 -8.84491,19.80263 -19.75565,19.80263c-10.91074,0 -19.75563,-8.86595 -19.75563,-19.80263c0,-10.93668 8.84489,-19.80264 19.75563,-19.80264z"/><path d="M279.90687,118.91796c0,10.93668 -8.84489,19.80263 -19.75563,19.80263c-10.91074,0 -19.75564,-8.86595 -19.75564,-19.80263c0,-10.93668 8.8449,-19.80264 19.75564,-19.80264c10.91074,0 19.75563,8.86595 19.75563,19.80264z" data-paper-data="{&quot;index&quot;:null}"/></g></g></g><path d="M246.58465,141.16762c0,3.19618 -2.94804,5.78722 -6.58464,5.78722c-3.63661,0 -6.58464,-2.59103 -6.58464,-5.78722c0,-3.19618 2.94804,-5.78722 6.58464,-5.78722c3.63661,0 6.58464,2.59102 6.58464,5.78722z" data-paper-data="{&quot;index&quot;:null}" fill="#ffcd98" stroke="#80674d"/></g></g><g stroke="none"><path d="M275.78571,146.58963c0,2.13953 -3.32588,3.87394 -7.42856,3.87394c-4.10268,0 -7.42856,-1.73442 -7.42856,-3.87394c0,-2.13953 3.32588,-3.87395 7.42856,-3.87395c4.10268,0 7.42856,1.73443 7.42856,3.87395z" data-paper-data="{&quot;index&quot;:null}" fill="url(#color-5)"/><path d="M211.64286,142.71571c4.10268,0 7.42856,1.73443 7.42856,3.87395c0,2.13953 -3.32588,3.87394 -7.42856,3.87394c-4.10268,0 -7.42856,-1.73442 -7.42856,-3.87394c0,-2.13953 3.32588,-3.87395 7.42856,-3.87395z" data-paper-data="{&quot;index&quot;:null}" fill="url(#color-6)"/></g></g><path d="M237.00021,49.24671c65.10844,0.4131 80.47919,67.57948 72.81456,68.56171c-1.676,0.21478 -17.01724,-26.59979 -19.594,-27.54308c-2.86791,-1.04986 -13.2845,11.62092 -14.4583,11.75691c-1.79434,0.2079 -18.20463,-17.14534 -19.81025,-16.67965c-1.47663,0.42827 -10.68841,15.73886 -16.03297,15.33243c-3.42793,-0.26068 -13.87618,-15.9637 -15.70243,-15.69033c-1.66638,0.24944 -19.03396,19.51281 -20.80782,20.01578c-6.60125,1.87171 -10.15478,-10.50075 -10.54399,-10.13657c-0.56554,0.52919 -22.96936,22.35274 -23.30572,22.35151c-5.94717,-0.02179 6.7098,-68.35399 67.44091,-67.96868z" data-paper-data="{&quot;index&quot;:null}" fill="#000000" stroke="none" stroke-width="0.5"/></g><path d="M227.82828,89.01291c0.93408,1.28162 -0.35775,2.20833 -0.35775,2.20833l-1.8639,1.33431c-2.71249,1.54088 -6.06945,3.67174 -9.08951,4.52589c-3.5111,0.99303 -7.8293,1.13329 -11.46292,1.14616c0,0 -1.59413,0.00413 -1.5983,-1.57742c-0.00417,-1.58155 1.58996,-1.58569 1.58996,-1.58569c3.34087,-0.00525 7.33209,-0.11561 10.56044,-1.01434c2.73727,-0.76201 5.80996,-2.75899 8.27264,-4.15304l1.72343,-1.2391c0,0 1.29181,-0.9267 2.22588,0.35492z" data-paper-data="{&quot;index&quot;:null}" fill="#000000" stroke="none" stroke-width="0.5" stroke-linecap="butt" stroke-linejoin="miter"/><path d="M252.17176,89.01292c0.93407,-1.28162 2.22588,-0.35492 2.22588,-0.35492l1.72343,1.2391c2.46268,1.39404 5.53537,3.39102 8.27264,4.15303c3.22835,0.89872 7.21957,1.00909 10.56044,1.01434c0,0 1.59413,0.00414 1.58996,1.58569c-0.00417,1.58155 -1.5983,1.57742 -1.5983,1.57742c-3.63362,-0.01286 -7.95182,-0.15313 -11.46292,-1.14616c-3.02006,-0.85415 -6.37702,-2.985 -9.08951,-4.52589l-1.8639,-1.33431c0,0 -1.29183,-0.92669 -0.35775,-2.20833z" data-paper-data="{&quot;index&quot;:null}" fill="#000000" stroke="none" stroke-width="0.5" stroke-linecap="butt" stroke-linejoin="miter"/><g data-paper-data="{&quot;index&quot;:null}" stroke-linejoin="miter"><g stroke="#7e0000" stroke-width="1" stroke-linecap="butt"><g fill="#ff0000"><path d="M254.22343,-17.92372c0,5.09181 -6.36806,9.21955 -14.22346,9.21955c-7.8554,0 -14.22346,-4.12773 -14.22346,-9.21955c0,-5.09181 6.36806,-9.21955 14.22346,-9.21955c7.8554,0 14.22346,4.12773 14.22346,9.21955z"/><path d="M300.3959,84.37342c-1.51896,1.33013 -115.61751,5.8341 -120.01392,-0.80731c-1.07401,-1.62245 -0.90619,-3.80654 -1.35928,-5.70982c-1.38514,-13.12942 -3.88582,-97.54633 59.11187,-99.46446c72.72766,-2.21439 63.57143,101.19052 62.26132,105.98159z"/></g><g><path d="M240.00001,87.97456c-40.56672,0 -73.45255,-3.62592 -73.45255,-8.09875c0,-4.47282 32.88582,-8.09876 73.45255,-8.09876c40.56673,0 73.45256,3.62593 73.45256,8.09876c0,4.47282 -32.88583,8.09875 -73.45256,8.09875z" fill="#b90000"/><path d="M166.54744,79.87574c0,-4.47282 32.88583,-8.09876 73.45256,-8.09876c40.20203,0 72.86067,3.56104 73.44459,7.97833c-0.23837,0.02608 -30.96764,5.57256 -73.02668,5.06207c-44.06083,1.39843 -72.61658,-4.99575 -73.73614,-4.90267c-0.04448,0.00127 -0.08892,0.00275 -0.13329,0.00443c-0.00069,-0.01445 -0.00103,-0.02893 -0.00103,-0.04341z" fill="#ff0000"/></g></g><g><text transform="translate(222.63036,55.35357) scale(0.23031,0.2547)" font-size="40" xml:space="preserve" fill="#7f0000" fill-rule="nonzero" stroke="#410000" stroke-width="1.5" stroke-linecap="butt" stroke-linejoin="miter" stroke-miterlimit="10" stroke-dasharray="" stroke-dashoffset="0" font-family="Marker" font-weight="normal" text-anchor="start" style="mix-blend-mode: normal"><tspan x="0" dy="0">Be Kool,</tspan><tspan x="0" dy="46.15px"> Guyz!</tspan></text><g><g data-paper-data="{&quot;index&quot;:null}" stroke-width="1.5"><path d="M223.4106,21.51031l-0.05979,-23.54582l9.08679,6.56075l4.00536,-9.11215l4.8423,7.65422l4.8423,-7.36265l3.64668,8.96637l6.81509,-6.63366l0.05977,22.45236z" fill="#ffffab" stroke="#7f7f00" stroke-linecap="round"/><g stroke-linecap="butt"><g><g stroke="#7f7f00"><path d="M258.93608,25.04276c0,10.79579 -8.478,19.54749 -18.93613,19.54749c-10.45814,0 -18.93612,-8.7517 -18.93612,-19.54749c0,-10.79579 8.47798,-19.54751 18.93612,-19.54751c10.45814,0 18.93613,8.75172 18.93613,19.54751z" fill="#fffe00"/><path d="M239.99008,5.49524c8.00845,0 14.85573,5.13191 17.62413,12.38379c-0.18681,-0.02476 -2.75687,-1.13835 -4.61337,-0.39337c-2.73652,1.09811 -5.12452,4.08517 -5.85995,2.99673c-3.16371,-4.68231 -7.37605,0.45131 -7.37605,0.45131c0,0 -3.49263,-2.47932 -5.07616,-3.05386c-3.18935,-1.15718 -5.79117,3.16292 -5.79117,3.16292c0,0 -3.66592,-4.43917 -6.51185,-3.21514c2.78109,-7.2247 9.61493,-12.33238 17.60442,-12.33238z" fill="#ffffab"/></g><path d="M239.14651,23.01959c0,4.54544 -3.18951,8.23024 -7.12396,8.23024c-3.93445,0 -7.12396,-3.6848 -7.12396,-8.23024c0,-4.54544 3.18951,-8.23026 7.12396,-8.23026c3.93445,0 7.12396,3.68481 7.12396,8.23026z" fill="#ffffff" stroke="#616100"/><path d="M247.97752,14.78934c3.93445,0 7.12396,3.68481 7.12396,8.23026c0,4.54544 -3.18952,8.23024 -7.12396,8.23024c-3.93445,0 -7.12396,-3.6848 -7.12396,-8.23024c0,-4.54544 3.18951,-8.23026 7.12396,-8.23026z" fill="#ffffff" stroke="#616100"/></g><path d="M242.27919,31.65335c0,0.99433 -1.02041,1.80039 -2.27916,1.80039c-1.25876,0 -2.27918,-0.80604 -2.27918,-1.80039c0,-0.99433 1.02043,-1.8004 2.27918,-1.8004c1.25876,0 2.27916,0.80605 2.27916,1.8004z" fill="#fffe00" stroke="#7f7f00"/></g></g><g stroke-linecap="butt"><path d="M236.24001,23.58959c0,2.42318 -1.6059,4.38756 -3.58688,4.38756c-1.98098,0 -3.58688,-1.96437 -3.58688,-4.38756c0,-2.42318 1.6059,-4.38756 3.58688,-4.38756c1.98098,0 3.58688,1.96438 3.58688,4.38756z" fill="#000000" stroke="#005fff" stroke-width="1"/><path d="M233.23542,22.16161c0,0.90706 -0.60829,1.6424 -1.35866,1.6424c-0.75036,0 -1.35868,-0.73532 -1.35868,-1.6424c0,-0.90706 0.6083,-1.64242 1.35868,-1.64242c0.75036,0 1.35866,0.73534 1.35866,1.64242z" fill="#ffffff" stroke="#000000" stroke-width="0.5"/></g><g data-paper-data="{&quot;index&quot;:null}" stroke-linecap="butt"><path d="M250.93382,23.58959c0,2.42318 -1.6059,4.38756 -3.58688,4.38756c-1.98098,0 -3.58688,-1.96437 -3.58688,-4.38756c0,-2.42318 1.6059,-4.38756 3.58688,-4.38756c1.98098,0 3.58688,1.96438 3.58688,4.38756z" fill="#000000" stroke="#005fff" stroke-width="1"/><path d="M247.92923,22.16161c0,0.90706 -0.60829,1.6424 -1.35866,1.6424c-0.75036,0 -1.35868,-0.73532 -1.35868,-1.6424c0,-0.90706 0.6083,-1.64242 1.35868,-1.64242c0.75036,0 1.35866,0.73534 1.35866,1.64242z" fill="#ffffff" stroke="#000000" stroke-width="0.5"/></g><path d="M226.62349,14.77757c0,0 1.43971,-2.40892 5.50665,-2.40034c4.033,0.00851 4.5668,2.33928 4.5668,2.33928" fill="none" stroke="#484800" stroke-width="1.5" stroke-linecap="round"/><path d="M252.11162,11.56769l-9.12734,2.59166" data-paper-data="{&quot;index&quot;:null}" fill="none" stroke="#484800" stroke-width="1.5" stroke-linecap="round"/><path d="M249.38575,33.71811c0,0 -0.34031,4.6004 -9.3178,4.63187c-8.01259,0.02808 -9.67402,-4.79034 -9.67402,-4.79034" fill="none" stroke="#484800" stroke-width="1.5" stroke-linecap="round"/><g fill="#000000" stroke="#000000" stroke-width="1.5"><path d="M263.06385,15.50975v3.70672h-46.12781v-3.70672z" stroke-linecap="butt"/><path d="M255.31859,16.90567c0,0 2.51194,16.50931 -9.18309,14.3357c-7.69185,-1.65712 -6.50953,-9.91298 -6.50953,-9.91298c0,0 1.61173,10.10187 -5.77888,9.83672c-11.53798,0.71494 -9.89715,-14.25942 -9.89715,-14.25942z" stroke-linecap="round"/></g></g></g></g><g data-paper-data="{&quot;index&quot;:null}" stroke-linecap="butt" stroke-linejoin="miter"><path d="M214.13474,118.48488c0,-3.69272 3.04712,-6.68628 6.80595,-6.68628c3.75883,0 6.80595,2.99356 6.80595,6.68628c0,3.69272 -3.04713,6.68628 -6.80595,6.68628c-3.75881,0 -6.80594,-2.99354 -6.80594,-6.68628z" fill="#000000" stroke="#661d00" stroke-width="1"/><path d="M216.33713,116.05777c0,-0.85729 0.70126,-1.55226 1.5663,-1.55226c0.86504,0 1.5663,0.69497 1.5663,1.55226c0,0.85729 -0.70125,1.55226 -1.5663,1.55226c-0.86504,0 -1.5663,-0.69497 -1.5663,-1.55226z" fill="#ffffff" stroke="none" stroke-width="0.5"/></g><path d="M225.12886,161.74195c0.91431,-3.41949 2.71547,-6.13497 5.40353,-8.14644c2.45033,-1.82861 5.1201,-2.74291 8.0093,-2.74291c2.92577,0.01828 5.2481,0.96917 6.96699,2.85263c1.92004,2.08461 2.66977,4.94638 2.24919,8.5853" data-paper-data="{&quot;index&quot;:null}" fill="none" stroke="#000000" stroke-width="2" stroke-linecap="round" stroke-linejoin="round"/><g data-paper-data="{&quot;index&quot;:null}" stroke-linecap="butt" stroke-linejoin="miter"><path d="M252.25336,118.48487c0,-3.69272 3.04712,-6.68628 6.80595,-6.68628c3.75883,0 6.80595,2.99356 6.80595,6.68628c0,3.69272 -3.04713,6.68628 -6.80595,6.68628c-3.75881,0 -6.80594,-2.99354 -6.80594,-6.68628z" fill="#000000" stroke="#661d00" stroke-width="1"/><path d="M254.45575,116.05776c0,-0.85729 0.70126,-1.55226 1.5663,-1.55226c0.86504,0 1.5663,0.69497 1.5663,1.55226c0,0.85729 -0.70125,1.55226 -1.5663,1.55226c-0.86504,0 -1.5663,-0.69497 -1.5663,-1.55226z" fill="#ffffff" stroke="none" stroke-width="0.5"/></g><path d="M234.96777,134.7404c0,0 -4.57812,6.76201 -15.86397,6.20983c-11.92526,-0.58346 -15.2925,-7.28852 -15.2925,-7.28852" data-paper-data="{&quot;index&quot;:null}" fill="none" stroke="#000000" stroke-width="0.5" stroke-linecap="round" stroke-linejoin="miter"/><path d="M276.18871,133.6617c0,0 -3.36723,6.70506 -15.2925,7.28852c-11.28585,0.55218 -15.86397,-6.20983 -15.86397,-6.20983" data-paper-data="{&quot;index&quot;:null}" fill="none" stroke="#000000" stroke-width="0.5" stroke-linecap="round" stroke-linejoin="miter"/><g fill="#c0ebff" stroke="none" stroke-width="0.5" stroke-linecap="butt" stroke-linejoin="miter"><path d="M177.19643,97.78522c-2.5,0 -2.5,-2.5 -2.5,-2.5l0.03402,-1.26814c1.15208,-6.88018 0.53741,-13.92023 0.53741,-20.87473c0,0 0,-2.5 2.5,-2.5c2.5,0 2.5,2.5 2.5,2.5c0,7.2421 0.58393,14.52891 -0.60544,21.6967l0.03402,0.44616c0,0 0,2.5 -2.5,2.5z" data-paper-data="{&quot;index&quot;:null}"/><path d="M187.62499,97.21377c-2.5,0 -2.5,-2.5 -2.5,-2.5v-2c0.00185,-6.90004 0.21719,-13.72781 0.00122,-20.6362c0,0 -0.07809,-2.49877 2.42069,-2.57687c2.49878,-0.07809 2.57688,2.42068 2.57688,2.42068c0.21742,6.95933 -0.00072,13.84183 0.00122,20.79238v2c0,0 0,2.5 -2.5,2.5z" data-paper-data="{&quot;index&quot;:null}"/><path d="M196.33927,98.21377c-2.5,0 -2.5,-2.5 -2.5,-2.5l0.01027,-1.08348c0.70891,-7.79469 0.81375,-15.64742 1.86982,-23.39716c0,0 0.33778,-2.47707 2.81486,-2.13929c2.47708,0.33778 2.13929,2.81486 2.13929,2.81486c-1.04712,7.67346 -1.14306,15.45499 -1.8445,23.17428l0.01027,0.6308c0,0 0,2.5 -2.5,2.5z" data-paper-data="{&quot;index&quot;:null}"/></g></g></g></svg>