<svg version="1.1" xmlns="http://www.w3.org/2000/svg" xmlns:xlink="http://www.w3.org/1999/xlink" width="218.35027" height="225.44989" viewBox="0,0,218.35027,225.44989"><defs><linearGradient x1="167.95298" y1="201.55084" x2="312.04823" y2="201.55084" gradientUnits="userSpaceOnUse" id="color-1"><stop offset="0" stop-color="#181818"/><stop offset="1" stop-color="#00ff04"/></linearGradient><linearGradient x1="167.95298" y1="201.55084" x2="312.04823" y2="201.55084" gradientUnits="userSpaceOnUse" id="color-2"><stop offset="0" stop-color="#d47dff"/><stop offset="1" stop-color="#de302d"/></linearGradient><linearGradient x1="170.9546" y1="201.55147" x2="309.04555" y2="201.55147" gradientUnits="userSpaceOnUse" id="color-3"><stop offset="0" stop-color="#a260c2"/><stop offset="1" stop-color="#ffff57"/></linearGradient><radialGradient cx="240.00061" cy="201.55141" r="66.57131" gradientUnits="userSpaceOnUse" id="color-4"><stop offset="0" stop-color="#d90000"/><stop offset="1" stop-color="#cd0000"/></radialGradient><radialGradient cx="240.0006" cy="201.55141" r="66.15781" gradientUnits="userSpaceOnUse" id="color-5"><stop offset="0" stop-color="#d90000"/><stop offset="1" stop-color="#cd0000"/></radialGradient><radialGradient cx="216.00967" cy="215.14567" r="7.66887" gradientUnits="userSpaceOnUse" id="color-6"><stop offset="0" stop-color="#e57373"/><stop offset="1" stop-color="#e57373" stop-opacity="0"/></radialGradient><radialGradient cx="263.87021" cy="214.05005" r="5.44799" gradientUnits="userSpaceOnUse" id="color-7"><stop offset="0" stop-color="#e57373"/><stop offset="1" stop-color="#e57373" stop-opacity="0"/></radialGradient><radialGradient cx="240.00072" cy="141.35839" r="17.30681" gradientUnits="userSpaceOnUse" id="color-8"><stop offset="0" stop-color="#d80000"/><stop offset="1" stop-color="#bf0000"/></radialGradient><radialGradient cx="240.00072" cy="140.98415" r="16.80168" gradientUnits="userSpaceOnUse" id="color-9"><stop offset="0" stop-color="#f25849"/><stop offset="1" stop-color="#f21400"/></radialGradient><radialGradient cx="240.0007" cy="138.14076" r="10.90158" gradientUnits="userSpaceOnUse" id="color-10"><stop offset="0" stop-color="#ff7265"/><stop offset="1" stop-color="#ff7265" stop-opacity="0"/></radialGradient><radialGradient cx="240.00072" cy="139.70984" r="13.03583" gradientUnits="userSpaceOnUse" id="color-11"><stop offset="0" stop-color="#ff7265"/><stop offset="1" stop-color="#ff7265" stop-opacity="0"/></radialGradient><radialGradient cx="240.0418" cy="139.19243" r="11.20521" gradientUnits="userSpaceOnUse" id="color-12"><stop offset="0" stop-color="#d80000"/><stop offset="1" stop-color="#bf0000"/></radialGradient><radialGradient cx="240.05525" cy="140.6241" r="13.21275" gradientUnits="userSpaceOnUse" id="color-13"><stop offset="0" stop-color="#d80000"/><stop offset="1" stop-color="#bf0000"/></radialGradient><radialGradient cx="239.97769" cy="137.83878" r="8.28088" gradientUnits="userSpaceOnUse" id="color-14"><stop offset="0" stop-color="#d80000"/><stop offset="1" stop-color="#bf0000"/></radialGradient><radialGradient cx="240.00073" cy="261.74406" r="17.30681" gradientUnits="userSpaceOnUse" id="color-15"><stop offset="0" stop-color="#d80000"/><stop offset="1" stop-color="#bf0000"/></radialGradient><radialGradient cx="240.00073" cy="262.1178" r="16.80168" gradientUnits="userSpaceOnUse" id="color-16"><stop offset="0" stop-color="#f25849"/><stop offset="1" stop-color="#f21400"/></radialGradient><radialGradient cx="240.0007" cy="264.9611" r="10.90158" gradientUnits="userSpaceOnUse" id="color-17"><stop offset="0" stop-color="#ff7265"/><stop offset="1" stop-color="#ff7265" stop-opacity="0"/></radialGradient><radialGradient cx="240.00073" cy="263.39252" r="13.03583" gradientUnits="userSpaceOnUse" id="color-18"><stop offset="0" stop-color="#ff7265"/><stop offset="1" stop-color="#ff7265" stop-opacity="0"/></radialGradient><radialGradient cx="240.0418" cy="263.90954" r="11.20521" gradientUnits="userSpaceOnUse" id="color-19"><stop offset="0" stop-color="#d80000"/><stop offset="1" stop-color="#bf0000"/></radialGradient><radialGradient cx="240.05526" cy="262.4783" r="13.21275" gradientUnits="userSpaceOnUse" id="color-20"><stop offset="0" stop-color="#d80000"/><stop offset="1" stop-color="#bf0000"/></radialGradient><radialGradient cx="239.97769" cy="265.26374" r="8.28088" gradientUnits="userSpaceOnUse" id="color-21"><stop offset="0" stop-color="#d80000"/><stop offset="1" stop-color="#bf0000"/></radialGradient><radialGradient cx="300.19329" cy="201.55174" r="17.30681" gradientUnits="userSpaceOnUse" id="color-22"><stop offset="0" stop-color="#d80000"/><stop offset="1" stop-color="#bf0000"/></radialGradient><radialGradient cx="300.56703" cy="201.55174" r="16.80168" gradientUnits="userSpaceOnUse" id="color-23"><stop offset="0" stop-color="#f25849"/><stop offset="1" stop-color="#f21400"/></radialGradient><radialGradient cx="303.41026" cy="201.55165" r="10.90158" gradientUnits="userSpaceOnUse" id="color-24"><stop offset="0" stop-color="#ff7265"/><stop offset="1" stop-color="#ff7265" stop-opacity="0"/></radialGradient><radialGradient cx="301.84175" cy="201.55174" r="13.03583" gradientUnits="userSpaceOnUse" id="color-25"><stop offset="0" stop-color="#ff7265"/><stop offset="1" stop-color="#ff7265" stop-opacity="0"/></radialGradient><radialGradient cx="302.35868" cy="201.59275" r="11.20521" gradientUnits="userSpaceOnUse" id="color-26"><stop offset="0" stop-color="#d80000"/><stop offset="1" stop-color="#bf0000"/></radialGradient><radialGradient cx="300.92753" cy="201.60627" r="13.21275" gradientUnits="userSpaceOnUse" id="color-27"><stop offset="0" stop-color="#d80000"/><stop offset="1" stop-color="#bf0000"/></radialGradient><radialGradient cx="303.7129" cy="201.52863" r="8.28088" gradientUnits="userSpaceOnUse" id="color-28"><stop offset="0" stop-color="#d80000"/><stop offset="1" stop-color="#bf0000"/></radialGradient><radialGradient cx="180.19299" cy="201.55174" r="17.30683" gradientUnits="userSpaceOnUse" id="color-29"><stop offset="0" stop-color="#9558b4"/><stop offset="1" stop-color="#6d4083"/></radialGradient><radialGradient cx="179.43382" cy="201.55174" r="16.80168" gradientUnits="userSpaceOnUse" id="color-30"><stop offset="0" stop-color="#d47dff"/><stop offset="1" stop-color="#a260c2"/></radialGradient><radialGradient cx="176.59046" cy="201.55165" r="10.90158" gradientUnits="userSpaceOnUse" id="color-31"><stop offset="0" stop-color="#de66ff"/><stop offset="1" stop-color="#de66ff" stop-opacity="0"/></radialGradient><radialGradient cx="178.43743" cy="201.55174" r="13.03584" gradientUnits="userSpaceOnUse" id="color-32"><stop offset="0" stop-color="#de66ff"/><stop offset="1" stop-color="#de66ff" stop-opacity="0"/></radialGradient><radialGradient cx="177.64206" cy="201.59275" r="11.20521" gradientUnits="userSpaceOnUse" id="color-33"><stop offset="0" stop-color="#9558b4"/><stop offset="1" stop-color="#6d4083"/></radialGradient><radialGradient cx="179.07329" cy="201.60627" r="13.21275" gradientUnits="userSpaceOnUse" id="color-34"><stop offset="0" stop-color="#9558b4"/><stop offset="1" stop-color="#6d4083"/></radialGradient><radialGradient cx="176.28794" cy="201.52864" r="8.28088" gradientUnits="userSpaceOnUse" id="color-35"><stop offset="0" stop-color="#9558b4"/><stop offset="1" stop-color="#6d4083"/></radialGradient><radialGradient cx="240.0006" cy="201.55182" r="65.90086" gradientUnits="userSpaceOnUse" id="color-36"><stop offset="0" stop-color="#d90000"/><stop offset="1" stop-color="#cd0000"/></radialGradient><linearGradient x1="174.09961" y1="201.55114" x2="240.00048" y2="201.55114" gradientUnits="userSpaceOnUse" id="color-37"><stop offset="0" stop-color="#9558b4"/><stop offset="1" stop-color="#9558b4" stop-opacity="0"/></linearGradient></defs><g transform="translate(-130.82531,-74.61453)"><g data-paper-data="{&quot;isPaintingLayer&quot;:true}" stroke-dasharray="" stroke-dashoffset="0" style="mix-blend-mode: normal"><path d="M285.72175,176.19104l17.14724,123.61808l-125.73792,-2.30059l18.5839,-120.78191z" data-paper-data="{&quot;index&quot;:null}" fill="#da2f2f" fill-rule="nonzero" stroke="#6c1818" stroke-width="0.5" stroke-linecap="round" stroke-linejoin="miter" stroke-miterlimit="10"/><g data-paper-data="{&quot;index&quot;:null}" fill-rule="nonzero" stroke-linejoin="miter" stroke-miterlimit="10"><g data-paper-data="{&quot;index&quot;:null}" stroke-linecap="butt"><g stroke-width="0.5"><path d="M348.92556,123.33392c0,20.3932 -16.53194,36.92515 -36.92514,36.92516c-20.3932,0 -36.92516,-16.53195 -36.92514,-36.92514c0,-20.3932 16.53195,-36.92514 36.92515,-36.92514c20.39321,0 36.92515,16.53195 36.92516,36.92515z" data-paper-data="{&quot;index&quot;:null}" fill="#00ff04" stroke="#de302d"/><g stroke="none"><path d="M346.56846,123.33395c0,19.09139 -15.47662,34.56801 -34.568,34.56802c-19.09139,0 -34.56802,-15.47662 -34.568,-34.568c0,-19.09139 15.47662,-34.568 34.56801,-34.568c19.09139,0 34.56801,15.47662 34.56802,34.56801z" data-paper-data="{&quot;index&quot;:null}" fill="#ffff57"/><g data-paper-data="{&quot;index&quot;:null}" fill-opacity="0.50196" fill="#ffffff"><g><g><g><path d="M325.68093,93.33668c-0.29942,0.7411 -1.14293,1.09914 -1.88402,0.79972c-0.74108,-0.29942 -1.09913,-1.14293 -0.79972,-1.88402c0.29943,-0.7411 1.14293,-1.09913 1.88403,-0.79971c0.74111,0.29942 1.09913,1.14292 0.79972,1.88402z"/><path d="M299.11924,155.21472c-0.7411,-0.29942 -1.09914,-1.14291 -0.79972,-1.88401c0.29942,-0.74111 1.14293,-1.09915 1.88402,-0.79973c0.74111,0.29942 1.09915,1.14292 0.79972,1.88403c-0.29942,0.7411 -1.14291,1.09913 -1.88401,0.79971z"/></g><g><path d="M280.34855,109.89864c0.31232,-0.73576 1.16193,-1.07903 1.89769,-0.76672c0.73576,0.31232 1.07902,1.16196 0.76672,1.8977c-0.31232,0.73576 -1.16195,1.07903 -1.89769,0.76671c-0.73576,-0.31232 -1.07901,-1.16193 -0.76672,-1.89769z"/><path d="M343.65226,136.7688c-0.3123,0.73576 -1.16194,1.07903 -1.89769,0.76671c-0.73576,-0.31232 -1.07904,-1.16193 -0.76672,-1.89769c0.3123,-0.73576 1.16193,-1.07903 1.89769,-0.76671c0.73575,0.31232 1.07903,1.16193 0.76671,1.89769z"/></g></g><g><g><path d="M342.88544,111.79634c-0.73575,0.31232 -1.58539,-0.03097 -1.89769,-0.76673c-0.3123,-0.73576 0.03097,-1.58538 0.76671,-1.89768c0.73576,-0.31232 1.58537,0.03097 1.89769,0.76671c0.31232,0.73576 -0.03098,1.5854 -0.76672,1.8977z"/><path d="M280.34864,136.7688c-0.3123,-0.73576 0.03096,-1.58537 0.76672,-1.89769c0.73576,-0.31232 1.58537,0.03097 1.89768,0.76671c0.31232,0.73576 -0.03096,1.58537 -0.76671,1.89769c-0.73576,0.31232 -1.58539,-0.03097 -1.89769,-0.76671z"/></g><g><path d="M298.31955,93.33668c-0.29942,-0.7411 0.05863,-1.58459 0.79972,-1.88402c0.7411,-0.29942 1.58459,0.05861 1.88402,0.79971c0.29942,0.74108 -0.05863,1.58459 -0.79972,1.88402c-0.7411,0.29942 -1.58459,-0.05863 -1.88401,-0.79972z"/><path d="M324.88106,155.21472c-0.7411,0.29943 -1.5846,-0.05863 -1.88402,-0.79972c-0.29942,-0.7411 0.05862,-1.58459 0.79971,-1.88402c0.7411,-0.29942 1.5846,0.05863 1.88403,0.79973c0.29942,0.7411 -0.05863,1.58459 -0.79972,1.88401z"/></g></g></g><g><g><g><path d="M313.44741,90.39618c0,0.79928 -0.64796,1.44725 -1.44725,1.44725c-0.79928,0 -1.44725,-0.64796 -1.44725,-1.44725c-0.00001,-0.79928 0.64796,-1.44725 1.44725,-1.44725c0.7993,0 1.44725,0.64796 1.44725,1.44725z"/><path d="M312.00007,157.71848c-0.79928,0 -1.44725,-0.64795 -1.44726,-1.44725c0,-0.79928 0.64796,-1.44724 1.44725,-1.44724c0.79928,-0.00001 1.44724,0.64795 1.44724,1.44724c0,0.7993 -0.64795,1.44725 -1.44724,1.44725z"/></g><g><path d="M344.93835,124.50251c-0.79928,0 -1.44725,-0.64796 -1.44725,-1.44725c0,-0.79928 0.64796,-1.44725 1.44725,-1.44725c0.79928,0 1.44725,0.64797 1.44725,1.44725c0,0.7993 -0.64796,1.44725 -1.44725,1.44725z"/><path d="M277.61503,123.05525c0,-0.79928 0.64795,-1.44725 1.44725,-1.44725c0.7993,0 1.44725,0.64796 1.44725,1.44725c0,0.7993 -0.64795,1.44724 -1.44725,1.44724c-0.79928,0.00001 -1.44725,-0.64796 -1.44725,-1.44724z"/></g></g><g><g><path d="M336.31452,101.06675c-0.56518,0.56519 -1.48154,0.56519 -2.04671,0.00001c-0.56518,-0.56518 -0.56518,-1.48154 0,-2.04672c0.56518,-0.56519 1.48154,-0.56519 2.04672,0c0.56518,0.56519 0.56518,1.48153 0,2.04671z"/><path d="M287.68631,147.64747c-0.56519,-0.56518 -0.56519,-1.48153 0,-2.04672c0.56519,-0.56519 1.48154,-0.56519 2.04673,0c0.56519,0.56519 0.56518,1.48153 -0.00001,2.04672c-0.56519,0.56519 -1.48154,0.56519 -2.04673,0z"/></g><g><path d="M287.68613,99.02001c0.56519,-0.56519 1.48154,-0.56518 2.04673,0.00001c0.56519,0.56518 0.56518,1.48153 -0.00001,2.04672c-0.56519,0.56519 -1.48155,0.56519 -2.04672,0c-0.56519,-0.56518 -0.56519,-1.48153 0,-2.04672z"/><path d="M334.26743,147.64747c-0.56518,-0.56519 -0.56518,-1.48153 0,-2.04672c0.56518,-0.56519 1.48153,-0.56518 2.04671,0.00001c0.56518,0.56519 0.56518,1.48154 0,2.04672c-0.56518,0.56519 -1.48153,0.56518 -2.04671,-0.00001z"/></g></g></g></g></g></g><g><path d="M343.47299,123.37798c-0.02431,17.38182 -14.1348,31.45286 -31.51661,31.42853c-17.3818,-0.02433 -31.45284,-14.1348 -31.42852,-31.51662c0.02432,-17.38182 14.13479,-31.45285 31.51662,-31.42853c17.38182,0.02432 31.45284,14.1348 31.42853,31.51662z" data-paper-data="{&quot;index&quot;:null}" fill="#de302d" stroke="none" stroke-width="0.5"/><g><g><g><g><g><path d="M311.95689,92.48402c17.03798,-0.02385 30.8693,13.76882 30.89315,30.8068c0.02385,17.03798 -13.76882,30.86932 -30.8068,30.89317c-17.03799,0.02384 -30.86932,-13.76883 -30.89316,-30.80681c-0.02385,-17.03798 13.76883,-30.86932 30.80681,-30.89316z" data-paper-data="{&quot;index&quot;:null}" fill="#de302d" stroke="none" stroke-width="0.5"/><path d="M338.54551,107.60553h0.00001c-1.08541,1.00466 -1.7649,2.4416 -1.7649,4.03724c0,3.02033 2.43457,5.47204 5.44836,5.49976c0.16767,0.82302 0.30258,1.65798 0.4033,2.50345l-0.0873,-0.65606c0.38205,2.70095 0.4059,5.44294 0.07147,8.14918c-0.04357,0.35258 -0.09322,0.70455 -0.14896,1.05574c0,0 0.03128,0.0064 -0.23851,1.33071c-3.01379,0.02772 -5.44836,2.47943 -5.44836,5.49976c0,1.59564 0.67949,3.03258 1.7649,4.03724c-0.82466,1.3888 -0.98228,1.5521 -0.98228,1.5521c-1.07527,1.5868 -2.31457,3.09575 -3.71796,4.50307h-0.00001c-1.3286,1.33232 -2.1719,1.98092 -2.1719,1.98092c-1.2371,1.02527 -2.55561,1.95581 -3.94441,2.78047c-1.00466,-1.08541 -2.4416,-1.7649 -4.03724,-1.7649c-3.02033,0 -5.47204,2.43457 -5.49976,5.44836c-1.32431,0.26979 -2.67952,0.45475 -4.05972,0.54897l2.05185,-0.20876c-1.35413,0.18358 -2.73621,0.27932 -4.14034,0.28129l0.00001,-0.00001c-2.01881,0.00283 -3.99261,-0.18832 -5.90375,-0.55587l2.17254,0.33767c-0.84547,-0.10072 -1.68043,-0.23563 -2.50345,-0.4033c-0.02772,-3.01379 -2.47943,-5.44836 -5.49976,-5.44836c-1.59564,0 -3.03258,0.67949 -4.03724,1.7649v-0.00001c-2.39627,-1.42289 -4.58328,-3.16098 -6.50396,-5.15705l0.38751,0.3957c-1.40338,-1.40732 -2.6427,-2.91626 -3.71796,-4.50307c0,0 0.16162,0.28269 -0.55244,-0.84987c-0.14629,-0.23201 -0.28956,-0.46613 -0.42978,-0.70226c1.08541,-1.00466 1.7649,-2.4416 1.7649,-4.03724c0,-3.02033 -2.43457,-5.47204 -5.44836,-5.49976c-0.26979,-1.32431 -0.45475,-2.67952 -0.54897,-4.05972l0.18902,1.88847c-0.37128,-2.84066 -0.34729,-5.72322 0.07211,-8.55868l-0.11545,0.85037c0.10072,-0.84547 0.23563,-1.68043 0.4033,-2.50345c3.01379,-0.02772 5.44836,-2.47943 5.44836,-5.49976c0,-1.59564 -0.67949,-3.03258 -1.7649,-4.03724h0.00001c1.42289,-2.39627 3.16098,-4.58328 5.15705,-6.50396l-0.84441,0.84449c1.92068,-1.99607 4.10769,-3.73416 6.50396,-5.15705l0.00001,-0.00001c1.00466,1.08541 2.4416,1.7649 4.03724,1.7649c3.02033,0 5.47204,-2.43457 5.49976,-5.44836c0.82302,-0.16767 1.65798,-0.30258 2.50345,-0.4033l-2.10771,0.32535c1.86348,-0.35421 3.78642,-0.54083 5.75258,-0.54358l-0.00003,0.00001c1.5893,-0.00223 3.15071,0.11577 4.67561,0.3454l-2.50074,-0.27286c1.3802,0.09422 2.73541,0.27918 4.05972,0.54897c0.02772,3.01379 2.47943,5.44836 5.49976,5.44836c1.59564,0 3.03258,-0.67949 4.03724,-1.7649c0,0 3.62387,2.30669 5.90892,4.55532c3.11038,3.0608 4.90761,6.26122 4.90761,6.26122z" data-paper-data="{&quot;index&quot;:null}" fill="#00ff04" stroke="#000000" stroke-width="0"/></g><g fill="#de302d" stroke="#000000" stroke-width="0"><g><g><path d="M332.57696,123.33918c0,-1.65685 1.34315,-3 3,-3c1.65685,0 3,1.34315 3,3c0,1.65685 -1.34315,3 -3,3c-1.65685,0 -3,-1.34315 -3,-3z" data-paper-data="{&quot;index&quot;:null}"/><path d="M291.42332,123.32886c0,1.65685 -1.34315,3 -3,3c-1.65685,0 -3,-1.34315 -3,-3c0,-1.65685 1.34315,-3 3,-3c1.65685,0 3,1.34315 3,3z" data-paper-data="{&quot;index&quot;:null}"/></g><g><path d="M315.00525,146.91037c0,1.65685 -1.34315,3 -3,3c-1.65685,0 -3,-1.34315 -3,-3c0,-1.65685 1.34315,-3 3,-3c1.65685,0 3,1.34315 3,3z" data-paper-data="{&quot;index&quot;:null}"/><path d="M308.99503,99.75701c0,-1.65685 1.34315,-3 3,-3c1.65685,0 3,1.34315 3,3c0,1.65685 -1.34315,3 -3,3c-1.65685,0 -3,-1.34315 -3,-3z" data-paper-data="{&quot;index&quot;:null}"/></g></g><g><g><path d="M326.54654,104.53765c1.17157,-1.17157 3.07107,-1.17157 4.24264,0c1.17157,1.17157 1.17157,3.07107 0,4.24264c-1.17157,1.17157 -3.07107,1.17157 -4.24264,0c-1.17157,-1.17157 -1.17157,-3.07107 0,-4.24264z" data-paper-data="{&quot;index&quot;:null}"/><path d="M297.45376,142.12975c-1.17157,1.17157 -3.07107,1.17157 -4.24264,0c-1.17157,-1.17157 -1.17157,-3.07107 0,-4.24264c1.17157,-1.17157 3.07107,-1.17157 4.24264,0c1.17157,1.17157 1.17157,3.07107 0,4.24264z" data-paper-data="{&quot;index&quot;:null}"/></g><g><path d="M326.54652,137.88709c1.17157,-1.17157 3.07107,-1.17157 4.24264,0c1.17157,1.17157 1.17157,3.07107 0,4.24264c-1.17157,1.17157 -3.07107,1.17157 -4.24264,0c-1.17157,-1.17157 -1.17157,-3.07107 0,-4.24264z" data-paper-data="{&quot;index&quot;:null}"/><path d="M297.45376,108.78027c-1.17157,1.17157 -3.07107,1.17157 -4.24264,0c-1.17157,-1.17157 -1.17157,-3.07107 0,-4.24264c1.17157,-1.17157 3.07107,-1.17157 4.24264,0c1.17157,1.17157 1.17157,3.07107 0,4.24264z" data-paper-data="{&quot;index&quot;:null}"/></g></g></g></g><path d="M328.10303,149.6524c-2.59263,1.58965 -5.43835,2.80701 -8.46286,3.57756c-0.61349,0.1563 -1.23433,0.29421 -1.86191,0.41312c-0.31719,0.0601 -0.16422,-3.90562 3.5475,-5.32211c4.64351,-1.77208 6.86743,1.27614 6.77726,1.33143z" data-paper-data="{&quot;index&quot;:null}" fill="#fbea31" stroke="none" stroke-width="0.5"/></g><path d="M327.18172,150.19538c-4.49436,2.54554 -9.69037,3.99558 -15.22472,3.98783c-17.03798,-0.02384 -30.83066,-13.85516 -30.80681,-30.89315c0.00404,-2.88682 0.40446,-5.68049 1.14971,-8.32955c0.0618,-0.2197 28.6597,3.96884 28.6597,3.96884c0,0 0.96943,0.76478 1.64073,2.05513c3.61949,6.95722 14.61302,29.19299 14.58139,29.2109z" data-paper-data="{&quot;index&quot;:null}" fill="#de302d" stroke="none" stroke-width="0.5"/></g><g data-paper-data="{&quot;index&quot;:null}" stroke="none" stroke-width="0.5"><path d="M295.2016,123.35748c-0.01299,-9.27753 7.49742,-16.80897 16.77496,-16.82196c9.27753,-0.01299 16.80897,7.49741 16.82196,16.77494c0.01299,9.27753 -7.49741,16.80898 -16.77495,16.82197c-9.27753,0.01298 -16.80897,-7.49741 -16.82196,-16.77495z" fill="#de302d"/><path d="M295.83547,123.3566c-0.0125,-8.92744 7.21449,-16.17468 16.14193,-16.18717c8.92744,-0.0125 16.17468,7.21449 16.18717,16.14192c0.0125,8.92744 -7.21449,16.17467 -16.14193,16.18717c-8.92744,0.0125 -16.17468,-7.21448 -16.18717,-16.14192z" fill="#0800ff"/></g></g></g></g><g data-paper-data="{&quot;index&quot;:null}"><text transform="translate(305.89225,132.17844) scale(0.0821,0.0908)" font-size="40" xml:space="preserve" fill="#7f0000" fill-rule="nonzero" stroke="#410000" stroke-width="0.5" stroke-linecap="butt" stroke-linejoin="miter" stroke-miterlimit="10" stroke-dasharray="" stroke-dashoffset="0" font-family="Marker" font-weight="normal" text-anchor="start" style="mix-blend-mode: normal"><tspan x="0" dy="0">Be Kool,</tspan><tspan x="0" dy="46.15px"> Guyz!</tspan></text><g stroke-width="0.25"><g data-paper-data="{&quot;index&quot;:null}"><path d="M306.17044,120.11421l-0.02132,-8.3935l3.23921,2.33874l1.42781,-3.24825l1.72616,2.72854l1.72616,-2.62461l1.29996,3.19629l2.42941,-2.36473l0.0213,8.0037z" fill="#ffffab" stroke="#7f7f00" stroke-linecap="round"/><g stroke-linecap="butt"><g><g stroke="#7f7f00"><path d="M318.83432,121.37343c0,3.84843 -3.02219,6.96819 -6.75025,6.96819c-3.72806,0 -6.75025,-3.11976 -6.75025,-6.96819c0,-3.84843 3.02219,-6.96819 6.75025,-6.96819c3.72807,0 6.75025,3.11977 6.75025,6.96819z" fill="#fffe00"/><path d="M312.08054,114.40522c2.85481,0 5.2957,1.8294 6.28256,4.41451c-0.0666,-0.00883 -0.98275,-0.40579 -1.64455,-0.14023c-0.9755,0.39145 -1.82676,1.45626 -2.08892,1.06825c-1.12779,-1.66912 -2.62938,0.16088 -2.62938,0.16088c0,0 -1.24504,-0.88381 -1.80953,-1.08863c-1.13693,-0.4125 -2.0644,1.1275 -2.0644,1.1275c0,0 -1.30681,-1.58245 -2.32131,-1.14611c0.99139,-2.57542 3.42748,-4.39619 6.27553,-4.39619z" fill="#ffffab"/></g><path d="M311.77986,120.65222c0,1.62034 -1.13698,2.93388 -2.53951,2.93388c-1.40254,0 -2.53951,-1.31354 -2.53951,-2.93388c0,-1.62034 1.13698,-2.93388 2.53951,-2.93388c1.40254,0 2.53951,1.31354 2.53951,2.93388z" fill="#ffffff" stroke="#616100"/><path d="M314.92787,117.71835c1.40254,0 2.53952,1.31354 2.53952,2.93388c0,1.62034 -1.13699,2.93388 -2.53952,2.93388c-1.40254,0 -2.53951,-1.31354 -2.53951,-2.93388c0,-1.62034 1.13698,-2.93388 2.53951,-2.93388z" fill="#ffffff" stroke="#616100"/></g><path d="M312.89662,123.72994c0,0.35446 -0.36376,0.6418 -0.81247,0.6418c-0.44872,0 -0.81247,-0.28733 -0.81247,-0.6418c0,-0.35446 0.36376,-0.6418 0.81247,-0.6418c0.44872,0 0.81247,0.28733 0.81247,0.6418z" fill="#fffe00" stroke="#7f7f00"/></g></g><g stroke-linecap="butt"><path d="M310.74379,120.85541c0,0.8638 -0.57247,1.56405 -1.27864,1.56405c-0.70617,0 -1.27864,-0.70024 -1.27864,-1.56405c0,-0.8638 0.57247,-1.56406 1.27864,-1.56406c0.70617,0 1.27864,0.70025 1.27864,1.56406z" fill="#000000" stroke="#005fff"/><path d="M309.67269,120.34637c0,0.32335 -0.21684,0.58547 -0.48433,0.58547c-0.26749,0 -0.48433,-0.26212 -0.48433,-0.58547c0,-0.32335 0.21684,-0.58549 0.48433,-0.58549c0.26749,0 0.48433,0.26214 0.48433,0.58549z" fill="#ffffff" stroke="#000000"/></g><g data-paper-data="{&quot;index&quot;:null}" stroke-linecap="butt"><path d="M315.98179,120.85541c0,0.8638 -0.57247,1.56405 -1.27863,1.56405c-0.70617,0 -1.27864,-0.70024 -1.27864,-1.56405c0,-0.8638 0.57247,-1.56406 1.27864,-1.56406c0.70617,0 1.27863,0.70025 1.27863,1.56406z" fill="#000000" stroke="#005fff"/><path d="M314.91069,120.34637c0,0.32335 -0.21684,0.58547 -0.48433,0.58547c-0.26749,0 -0.48435,-0.26212 -0.48435,-0.58547c0,-0.32335 0.21686,-0.58549 0.48435,-0.58549c0.26749,0 0.48433,0.26214 0.48433,0.58549z" fill="#ffffff" stroke="#000000"/></g><path d="M307.3157,117.71414c0,0 0.51322,-0.85872 1.96298,-0.85566c1.43766,0.00303 1.62795,0.83389 1.62795,0.83389" fill="none" stroke="#484800" stroke-linecap="round"/><path d="M313.1479,117.49375l3.25367,-0.92386" data-paper-data="{&quot;index&quot;:null}" fill="none" stroke="#484800" stroke-linecap="round"/><path d="M315.42987,124.46599c0,0 -0.12131,1.63993 -3.32156,1.65114c-2.85629,0.01001 -3.44855,-1.70763 -3.44855,-1.70763" fill="none" stroke="#484800" stroke-linecap="round"/><g fill="#000000" stroke="#000000"><path d="M320.30584,117.97515v1.32135h-16.4434v-1.32135z" stroke-linecap="butt"/><path d="M317.54483,118.47276c0,0 0.89544,5.88516 -3.27354,5.11033c-2.74195,-0.59072 -2.32048,-3.53373 -2.32048,-3.53373c0,0 0.57454,3.60106 -2.06003,3.50655c-4.113,0.25486 -3.52808,-5.08312 -3.52808,-5.08312z" stroke-linecap="round"/></g></g></g></g><g data-paper-data="{&quot;index&quot;:null}" fill-rule="nonzero" stroke-width="0.5" stroke-linecap="butt" stroke-linejoin="miter" stroke-miterlimit="10"><g><path d="M204.9256,123.3339c0,20.3932 -16.53194,36.92515 -36.92514,36.92516c-20.3932,0 -36.92516,-16.53195 -36.92514,-36.92514c0,-20.3932 16.53195,-36.92514 36.92515,-36.92514c20.39321,0 36.92515,16.53195 36.92516,36.92515z" data-paper-data="{&quot;index&quot;:null}" fill="#181818" stroke="#d47dff"/><g stroke="none"><path d="M202.5685,123.33393c0,19.09139 -15.47662,34.56801 -34.568,34.56802c-19.09139,0 -34.56802,-15.47662 -34.568,-34.568c0,-19.09139 15.47662,-34.568 34.56801,-34.568c19.09139,0 34.56801,15.47662 34.56802,34.56801z" data-paper-data="{&quot;index&quot;:null}" fill="#a260c2"/><g data-paper-data="{&quot;index&quot;:null}" fill-opacity="0.50196" fill="#ffffff"><g><g><g><path d="M181.68126,93.33666c-0.29942,0.7411 -1.14293,1.09914 -1.88402,0.79972c-0.74108,-0.29942 -1.09913,-1.14293 -0.79972,-1.88402c0.29943,-0.7411 1.14293,-1.09913 1.88403,-0.79971c0.74111,0.29942 1.09913,1.14292 0.79972,1.88402z"/><path d="M155.1194,155.21472c-0.7411,-0.29942 -1.09914,-1.14291 -0.79972,-1.88401c0.29942,-0.74111 1.14293,-1.09915 1.88402,-0.79973c0.74111,0.29942 1.09915,1.14292 0.79972,1.88403c-0.29942,0.7411 -1.14291,1.09913 -1.88401,0.79971z"/></g><g><path d="M136.34859,109.89862c0.31232,-0.73576 1.16193,-1.07903 1.89769,-0.76672c0.73576,0.31232 1.07902,1.16196 0.76672,1.8977c-0.31232,0.73576 -1.16195,1.07903 -1.89769,0.76671c-0.73576,-0.31232 -1.07901,-1.16193 -0.76672,-1.89769z"/><path d="M199.6523,136.7688c-0.3123,0.73576 -1.16194,1.07903 -1.89769,0.76671c-0.73576,-0.31232 -1.07904,-1.16193 -0.76672,-1.89769c0.3123,-0.73576 1.16193,-1.07903 1.89769,-0.76671c0.73575,0.31232 1.07903,1.16193 0.76671,1.89769z"/></g></g><g><g><path d="M198.88548,111.79634c-0.73575,0.31232 -1.58539,-0.03097 -1.89769,-0.76673c-0.3123,-0.73576 0.03097,-1.58538 0.76671,-1.89768c0.73576,-0.31232 1.58537,0.03097 1.89769,0.76671c0.31232,0.73576 -0.03098,1.5854 -0.76672,1.8977z"/><path d="M136.34868,136.7688c-0.3123,-0.73576 0.03096,-1.58537 0.76672,-1.89769c0.73576,-0.31232 1.58537,0.03097 1.89768,0.76671c0.31232,0.73576 -0.03096,1.58537 -0.76671,1.89769c-0.73576,0.31232 -1.58539,-0.03097 -1.89769,-0.76671z"/></g><g><path d="M154.31962,93.33666c-0.29942,-0.7411 0.05863,-1.58459 0.79972,-1.88402c0.7411,-0.29942 1.58459,0.05861 1.88402,0.79971c0.29942,0.74108 -0.05863,1.58459 -0.79972,1.88402c-0.7411,0.29942 -1.58459,-0.05863 -1.88401,-0.79972z"/><path d="M180.88154,155.21472c-0.7411,0.29943 -1.5846,-0.05863 -1.88402,-0.79972c-0.29942,-0.7411 0.05862,-1.58459 0.79971,-1.88402c0.7411,-0.29942 1.5846,0.05863 1.88403,0.79973c0.29942,0.7411 -0.05863,1.58459 -0.79972,1.88401z"/></g></g></g><g><g><g><path d="M169.44785,90.39618c0,0.79928 -0.64796,1.44725 -1.44725,1.44725c-0.79928,0 -1.44725,-0.64796 -1.44725,-1.44725c-0.00001,-0.79928 0.64796,-1.44725 1.44725,-1.44725c0.7993,0 1.44725,0.64796 1.44725,1.44725z"/><path d="M168.00051,157.71848c-0.79928,0 -1.44725,-0.64795 -1.44726,-1.44725c0,-0.79928 0.64796,-1.44724 1.44725,-1.44724c0.79928,-0.00001 1.44724,0.64795 1.44724,1.44724c0,0.7993 -0.64795,1.44725 -1.44724,1.44725z"/></g><g><path d="M200.93839,124.50251c-0.79928,0 -1.44725,-0.64796 -1.44725,-1.44725c0,-0.79928 0.64796,-1.44725 1.44725,-1.44725c0.79928,0 1.44725,0.64797 1.44725,1.44725c0,0.7993 -0.64796,1.44725 -1.44725,1.44725z"/><path d="M133.61507,123.05525c0,-0.79928 0.64795,-1.44725 1.44725,-1.44725c0.7993,0 1.44725,0.64796 1.44725,1.44725c0,0.7993 -0.64795,1.44724 -1.44725,1.44724c-0.79928,0.00001 -1.44725,-0.64796 -1.44725,-1.44724z"/></g></g><g><g><path d="M192.31456,101.06673c-0.56518,0.56519 -1.48154,0.56519 -2.04671,0.00001c-0.56518,-0.56518 -0.56518,-1.48154 0,-2.04672c0.56518,-0.56519 1.48154,-0.56519 2.04672,0c0.56518,0.56519 0.56518,1.48153 0,2.04671z"/><path d="M143.68647,147.64747c-0.56519,-0.56518 -0.56519,-1.48153 0,-2.04672c0.56519,-0.56519 1.48154,-0.56519 2.04673,0c0.56519,0.56519 0.56518,1.48153 -0.00001,2.04672c-0.56519,0.56519 -1.48154,0.56519 -2.04673,0z"/></g><g><path d="M143.68629,99.01999c0.56519,-0.56519 1.48154,-0.56518 2.04673,0.00001c0.56519,0.56518 0.56518,1.48153 -0.00001,2.04672c-0.56519,0.56519 -1.48155,0.56519 -2.04672,0c-0.56519,-0.56518 -0.56519,-1.48153 0,-2.04672z"/><path d="M190.26781,147.64747c-0.56518,-0.56519 -0.56518,-1.48153 0,-2.04672c0.56518,-0.56519 1.48153,-0.56518 2.04671,0.00001c0.56518,0.56519 0.56518,1.48154 0,2.04672c-0.56518,0.56519 -1.48153,0.56518 -2.04671,-0.00001z"/></g></g></g></g></g></g><g stroke="none"><path d="M136.52758,123.37796c-0.02433,-17.3818 14.04671,-31.49229 31.42853,-31.51661c17.38182,-0.02433 31.49229,14.0467 31.51661,31.42853c0.02433,17.3818 -14.0467,31.49229 -31.42852,31.51662c-17.38182,0.02433 -31.4923,-14.0467 -31.51661,-31.42852z" data-paper-data="{&quot;index&quot;:null}" fill="#d47dff"/><g><path d="M137.15008,123.3771c-0.02385,-17.03799 13.76883,-30.8693 30.80681,-30.89315c17.03798,-0.02384 30.86932,13.76882 30.89316,30.8068c0.02385,17.03799 -13.76883,30.86931 -30.80681,30.89315c-17.03798,0.02385 -30.86932,-13.76883 -30.89315,-30.80681z" data-paper-data="{&quot;index&quot;:null}" fill="#d47dff"/><g><g><path d="M196.49977,135.16662c-3.64594,8.77083 -11.22332,15.49821 -20.53541,17.97928c-1.29386,-4.19374 -5.273,-18.37416 -7.54544,-25.46135c-0.21874,-0.68219 0.37913,-2.27206 1.26418,-3.57565c0.34742,-0.51172 26.94093,10.75876 26.81666,11.05773z" fill="#d47dff"/><path d="M155.74879,120.98639c1.05501,0.35026 1.14171,-0.35023 2.17455,0.06123l-0.36002,-1.64082c0,0 -17.24499,-6.99634 -18.28877,-7.34533c3.37711,-8.59891 10.5042,-15.31552 19.37071,-18.13362c0.24912,0.62565 5.43809,17.75388 5.43809,17.75388l0.28461,-0.13948c-0.17378,-0.34716 -0.21314,-0.73727 -0.1807,-1.15023c0.04204,0.03977 0.09022,0.0754 0.14531,0.10625c2.20847,0.0234 4.49893,0.1448 6.6554,-0.33117c0.65574,-0.1493 1.23619,-0.27522 1.80404,-0.4341c0.02548,0.48239 -0.00632,0.88561 -0.18585,1.08026l1.56121,0.40725c0,0 7.44012,-14.70516 7.81038,-15.39577c7.53415,3.8358 13.28373,10.67614 15.66811,18.94479c-0.89912,0.02175 -19.36594,2.83168 -19.36594,2.83168l0.07967,0.31684c0.49492,-0.00069 1.03835,0.3852 1.59739,0.89501c-1.59279,0.96743 -2.83357,2.26855 -4.38732,3.30896c-1.57879,1.50634 -3.13403,3.1606 -4.49511,4.86685c-1.36467,1.71073 -2.89313,3.30249 -4.43783,4.85152c-1.53047,1.53476 -3.05917,3.09552 -4.77629,4.40695c-0.21156,0.19497 -0.44382,0.38611 -0.67869,0.57779c-0.53951,-0.6475 -0.8917,-1.22637 -0.59998,-1.57774l-0.24777,-0.19764c0,0 -7.16444,14.17789 -7.64795,15.07081c-5.7067,-3.26962 -10.26933,-8.31061 -12.93723,-14.37436c0.71617,-0.3699 17.44957,-7.9622 17.44957,-7.9622c0,0 0.23204,-0.36228 0.09018,-0.43295c-0.07227,-0.03601 -1.29355,-0.54394 -2.64653,-0.94714c0.16011,-0.17472 0.29272,-0.35309 0.39005,-0.53362c0.04012,-1.69719 0.48868,-3.24833 0.53084,-4.91386c0.11183,0.01758 0.18362,0.02905 0.18587,0.02994z" fill="#181818"/></g><g><path d="M151.20178,123.35745c-0.01299,-9.27753 7.49741,-16.80898 16.77495,-16.82197c9.27753,-0.01299 16.80898,7.49741 16.82196,16.77495c0.01299,9.27753 -7.49741,16.80898 -16.77495,16.82197c-9.27753,0.01299 -16.80898,-7.49741 -16.82196,-16.77495z" fill="#d47dff"/><path d="M151.83556,123.35656c-0.0125,-8.92744 7.21449,-16.17468 16.14192,-16.18717c8.92744,-0.0125 16.17468,7.21449 16.18717,16.14193c0.0125,8.92744 -7.21448,16.17467 -16.14192,16.18717c-8.92744,0.0125 -16.17468,-7.21448 -16.18717,-16.14192z" fill="#6d4083"/></g></g></g></g></g><g data-paper-data="{&quot;index&quot;:null}" fill-rule="nonzero" stroke-linejoin="miter" stroke-miterlimit="10"><g><g stroke-linecap="butt"><g><g><g><g><g data-paper-data="{&quot;index&quot;:null}" stroke-width="0.5"><g><g><path d="M240.10146,129.50313c39.79078,0.05569 72.00244,32.35764 71.94674,72.14842c-0.05569,39.79078 -32.35763,72.00244 -72.14841,71.94674c-39.79078,-0.05569 -72.00244,-32.35763 -71.94674,-72.14841c0.05569,-39.79078 32.35763,-72.00243 72.14841,-71.94675z" data-paper-data="{&quot;index&quot;:null}" fill="url(#color-1)" stroke="url(#color-2)"/><g data-paper-data="{&quot;index&quot;:null}" stroke="none"><path d="M309.04555,201.55147c0,38.13277 -30.91273,69.0455 -69.04552,69.0455c-38.13277,0 -69.04551,-30.91272 -69.04551,-69.0455c0,-38.13278 30.91273,-69.04551 69.04551,-69.04551c38.13278,0 69.04552,30.91272 69.04552,69.04551z" data-paper-data="{&quot;index&quot;:null}" fill="url(#color-3)"/><g data-paper-data="{&quot;index&quot;:null}" fill-opacity="0.50196" fill="#ffffff"><g><g><path d="M308.90614,201.55141c0,0.60651 -0.49168,1.09819 -1.09819,1.09819c-0.60651,0 -1.09819,-0.49168 -1.09819,-1.09819c0,-0.60651 0.49167,-1.09818 1.09819,-1.09818c0.60651,0 1.09819,0.49167 1.09819,1.09818z"/><path d="M172.19246,200.4532c0.60651,0 1.09819,0.49168 1.09819,1.09819c0,0.60651 -0.49168,1.09819 -1.09819,1.09819c-0.60651,0 -1.09819,-0.49168 -1.09819,-1.09819c0,-0.60651 0.49168,-1.09819 1.09819,-1.09819z"/></g><g><path d="M240.00051,132.64452c0.60651,0 1.09818,0.49167 1.09818,1.09818c0,0.60651 -0.49167,1.09819 -1.09818,1.09819c-0.60651,0 -1.09819,-0.49167 -1.09819,-1.09819c0,-0.6065 0.49168,-1.09818 1.09819,-1.09818z"/><path d="M238.9023,269.35875c0,-0.60651 0.49168,-1.0982 1.09819,-1.0982c0.60651,0 1.09817,0.49169 1.09817,1.0982c0,0.60651 -0.49167,1.09818 -1.09817,1.09818c-0.60651,0 -1.09819,-0.49167 -1.09819,-1.09818z"/></g></g><g><g><path d="M288.724,152.82718c0.42886,0.42887 0.42886,1.1242 0,1.55307c-0.42886,0.42887 -1.1242,0.42887 -1.55307,0c-0.42886,-0.42887 -0.42886,-1.1242 0,-1.55307c0.42886,-0.42887 1.1242,-0.42887 1.55307,0z"/><path d="M191.27637,248.72242c0.42887,-0.42887 1.12421,-0.42887 1.55307,0c0.42886,0.42887 0.42886,1.1242 0,1.55307c-0.42887,0.42887 -1.1242,0.42887 -1.55307,0c-0.42886,-0.42887 -0.42886,-1.1242 0,-1.55307z"/></g><g><path d="M191.27637,152.82718c0.42887,-0.42887 1.1242,-0.42887 1.55307,0c0.42886,0.42887 0.42886,1.1242 0,1.55307c-0.42887,0.42887 -1.1242,0.42887 -1.55307,0c-0.42886,-0.42887 -0.42886,-1.1242 0,-1.55307z"/><path d="M287.17082,250.27551c-0.42886,-0.42887 -0.42887,-1.1242 0,-1.55307c0.42886,-0.42887 1.12421,-0.42887 1.55307,0c0.42886,0.42887 0.42886,1.1242 0,1.55307c-0.42887,0.42887 -1.12421,0.42887 -1.55307,0z"/></g></g><g><g><g><path d="M177.77316,228.51255c-0.56035,0.23209 -1.20273,-0.03404 -1.43482,-0.59439c-0.23209,-0.56035 0.03405,-1.20273 0.5944,-1.43482c0.56035,-0.23209 1.20273,0.03404 1.43481,0.59439c0.23209,0.56035 -0.03405,1.20274 -0.5944,1.43483z"/><path d="M303.66211,175.18471c0.23208,0.56035 -0.03404,1.20273 -0.59439,1.43482c-0.56036,0.23209 -1.20274,-0.03403 -1.43482,-0.59438c-0.23209,-0.56035 0.03403,-1.20274 0.59438,-1.43482c0.56035,-0.23209 1.20274,0.03404 1.43482,0.59439z"/></g><g><path d="M266.96094,263.77817c0.23208,0.56035 -0.03404,1.20273 -0.59439,1.43481c-0.56035,0.23209 -1.20273,-0.03404 -1.43481,-0.59439c-0.23209,-0.56035 0.03403,-1.20273 0.59438,-1.43481c0.56036,-0.23209 1.20273,0.03404 1.43481,0.59439z"/><path d="M213.63374,137.88862c0.56036,-0.23209 1.20274,0.03403 1.43482,0.59438c0.23208,0.56036 -0.03403,1.20275 -0.59438,1.43483c-0.56035,0.23209 -1.20273,-0.03404 -1.43481,-0.59439c-0.23209,-0.56035 0.03403,-1.20274 0.59438,-1.43482z"/></g></g><g><g><path d="M213.62868,265.21065c-0.56034,-0.23212 -0.8264,-0.87453 -0.59428,-1.43486c0.23211,-0.56034 0.87453,-0.8264 1.43486,-0.59428c0.56034,0.23212 0.82641,0.87454 0.59429,1.43487c-0.23212,0.56034 -0.87454,0.8264 -1.43487,0.59428z"/><path d="M266.37174,137.89076c0.56034,0.23211 0.82639,0.87453 0.59427,1.43486c-0.23212,0.56035 -0.87453,0.8264 -1.43486,0.59428c-0.56034,-0.23211 -0.8264,-0.87454 -0.59428,-1.43487c0.23212,-0.56034 0.87453,-0.82639 1.43486,-0.59427z"/></g><g><path d="M303.6599,227.92325c-0.23212,0.56034 -0.87453,0.8264 -1.43487,0.59428c-0.56034,-0.23212 -0.82639,-0.87454 -0.59427,-1.43487c0.23212,-0.56034 0.87454,-0.82639 1.43487,-0.59427c0.56034,0.23212 0.82639,0.87453 0.59427,1.43485z"/><path d="M176.34043,175.17962c0.23212,-0.56034 0.87453,-0.82639 1.43486,-0.59427c0.56033,0.23211 0.82641,0.87453 0.59429,1.43486c-0.23212,0.56034 -0.87455,0.8264 -1.43488,0.59428c-0.56033,-0.23212 -0.82639,-0.87454 -0.59427,-1.43487z"/></g></g></g></g></g></g><path d="M240.00062,134.97949c36.76632,0 66.57131,29.80498 66.57131,66.57131c0,36.76632 -29.80499,66.57131 -66.57131,66.57131c-36.76633,0 -66.57132,-29.80499 -66.57132,-66.57131c0,-36.76631 29.80499,-66.5713 66.57131,-66.5713z" data-paper-data="{&quot;index&quot;:null}" fill="url(#color-4)" stroke="none"/><path d="M240.00062,135.39343c36.53795,0 66.15781,29.61986 66.15781,66.15781c0,36.53795 -29.61987,66.15781 -66.15781,66.15781c-36.53795,0 -66.15781,-29.61986 -66.15781,-66.15781c0,-36.53795 29.61986,-66.1578 66.15781,-66.1578z" data-paper-data="{&quot;index&quot;:null}" fill="url(#color-5)" stroke="none"/></g><path d="M240.00053,136.24946c36.06493,0 65.30131,29.2364 65.30131,65.30132c0,36.06493 -29.2364,65.30132 -65.30131,65.30132c-36.06492,0 -65.30131,-29.2364 -65.30131,-65.30131c0,-36.06492 29.23639,-65.30131 65.30131,-65.30131z" data-paper-data="{&quot;index&quot;:null}" fill="#ffcd98" stroke="none"/></g><path d="M262.62719,173.21051c-0.45931,-0.35339 -0.42108,-1.07791 -0.52185,-1.64313c-0.39081,-2.19198 1.36311,-4.69113 2.30119,-6.55767c0.14668,-0.29185 0.71235,-1.40999 1.16751,-2.11004c-2.33533,1.01812 -20.37688,9.72198 -27.24002,9.28313c-1.18087,-1.99993 -0.6706,-2.75467 -0.14774,-4.82201c0.74212,-2.93425 2.03067,-5.92912 2.33758,-8.94136c0.00106,-0.01027 0.0017,-0.01615 0.00195,-0.01835c-0.00207,0.01718 -0.03126,0.24916 -0.09275,0.30766c-0.2005,0.19072 -0.45598,0.31686 -0.69501,0.45815c-0.97546,0.57656 -2.02218,1.02898 -3.05552,1.49776c-2.91577,1.32272 -23.02387,10.98705 -24.47428,9.83086c-0.55735,-0.44429 0.53889,-6.8309 0.68431,-8.75729c0.03676,-0.48691 0.4391,-1.48159 -0.05657,-1.46368c-0.5333,0.01928 -1.84535,0.86228 -2.31924,1.04887c-2.5222,1.23463 -26.67694,12.75289 -29.4023,13.18994c-1.36053,0.21818 -0.06934,-2.04745 0.03287,-2.4985c0.04903,-0.21635 14.65764,-34.36696 54.7157,-36.0395c42.87926,-1.79034 58.30639,29.4734 58.26411,29.46844c0,0 -30.58989,8.46694 -31.49994,7.76674z" data-paper-data="{&quot;index&quot;:null}" fill="#000000" stroke="#000000" stroke-width="0"/></g><g fill="#e67d7b" stroke="none" stroke-width="0"><path d="M204.32672,161.27604c0,2.96646 -2.45523,5.37126 -5.48394,5.37126c-3.0287,0 -5.48394,-2.40481 -5.48394,-5.37126c0,-2.96646 2.45524,-5.37125 5.48394,-5.37125c3.0287,0 5.48394,2.40479 5.48394,5.37125z" data-paper-data="{&quot;index&quot;:null}"/><g><path d="M269.54188,260.42512c-5.18302,2.59432 -9.83202,3.79789 -9.83202,3.79789c-1.38106,-2.62837 -2.68173,-10.95568 4.72708,-14.9489c9.68746,-4.5173 14.05665,4.68721 14.46837,5.27727c-0.55858,0.35709 -5.32063,3.85015 -9.36343,5.87375z" data-paper-data="{&quot;index&quot;:null}"/><path d="M290.51466,159.37635c-0.47099,0.38187 -6.15514,6.81734 -12.9472,0.90064c-5.06892,-4.96105 -2.07423,-11.40152 -0.34305,-13.20808c0,0 3.4843,2.05851 7.07683,5.3678c2.80221,2.58128 5.84432,6.52024 6.21342,6.93964z" data-paper-data="{&quot;index&quot;:null}"/></g></g></g><g data-paper-data="{&quot;index&quot;:null}" stroke="#000000" stroke-width="1"><path d="M177.36953,191.41128v-2.84155h125.26143v2.84155z" fill="#000000"/><g fill="#ffffff"><path d="M222.43255,172.20648c9.51191,0 17.22284,7.72927 17.22284,17.2638c0,9.53452 -7.71093,17.2638 -17.22283,17.2638c-9.51191,0 -17.22282,-7.72927 -17.22282,-17.26379c0,-9.53452 7.71092,-17.2638 17.22282,-17.2638z"/><path d="M274.79053,189.47035c0,9.53452 -7.71092,17.2638 -17.22282,17.2638c-9.51191,0 -17.22283,-7.72928 -17.22283,-17.2638c0,-9.53452 7.71092,-17.2638 17.22283,-17.2638c9.51191,0 17.22282,7.72927 17.22282,17.2638z" data-paper-data="{&quot;index&quot;:null}"/></g></g></g><path d="M245.74069,208.86749c0,2.78641 -2.57008,5.04526 -5.74044,5.04526c-3.17037,0 -5.74044,-2.25884 -5.74044,-5.04526c0,-2.78641 2.57008,-5.04526 5.74044,-5.04526c3.17037,0 5.74045,2.25883 5.74045,5.04526z" data-paper-data="{&quot;index&quot;:null}" fill="#ffcd98" stroke="#80674d" stroke-width="1"/></g><g data-paper-data="{&quot;index&quot;:null}" stroke="none" stroke-width="0"><path d="M216.00967,207.47679c4.00577,0 7.2531,3.43347 7.2531,7.66887c0,4.2354 -3.24732,7.66887 -7.2531,7.66887c-4.00577,0 -7.25309,-3.43347 -7.25309,-7.66887c0,-4.2354 3.24731,-7.66887 7.25309,-7.66887z" fill="url(#color-6)"/><path d="M263.87021,208.60206c2.84571,0 5.15262,2.43915 5.15262,5.44799c0,3.00884 -2.30691,5.44799 -5.15262,5.44799c-2.84571,0 -5.15262,-2.43915 -5.15262,-5.44799c0,-3.00884 2.3069,-5.44799 5.15262,-5.44799z" fill="url(#color-7)"/></g></g><g><g><g data-paper-data="{&quot;index&quot;:null}"><g data-paper-data="{&quot;index&quot;:null}"><g stroke="#000000" stroke-width="0"><g stroke-linecap="butt"><path d="M240.17783,135.74597c0.14713,0 -0.50128,0 -0.35415,0c11.51612,0 17.4839,2.33585 17.4839,2.33585c0,0 -0.14819,0.21799 -0.22354,0.32592c-3.8587,5.52773 -9.8694,9.14274 -16.65401,9.32916c-0.18334,0.00503 -0.67524,0.00503 -0.85858,0c-6.7846,-0.18641 -12.79528,-3.80143 -16.654,-9.32918c-0.07534,-0.10791 -0.22354,-0.32591 -0.22354,-0.32591c0,0 5.96777,-2.33586 17.48389,-2.33586z" data-paper-data="{&quot;index&quot;:null}" fill="url(#color-8)"/><path d="M240.17263,135.52659c0.14285,0 -0.48668,0 -0.34383,0c11.17998,0 16.97359,2.26073 16.97359,2.26073c0,0 -0.14387,0.21273 -0.21701,0.31805c-3.74609,5.39407 -9.58134,8.92166 -16.16792,9.10357c-0.178,0.00492 -0.65553,0.00493 -0.83353,0.00001c-6.58657,-0.18192 -12.42182,-3.70948 -16.1679,-9.10356c-0.07315,-0.10531 -0.21702,-0.31804 -0.21702,-0.31804c0,0 5.79361,-2.26074 16.97359,-2.26074z" data-paper-data="{&quot;index&quot;:null}" fill="url(#color-9)"/></g><g><path d="M240.18266,141.09787c-5.311,0 -9.77884,-1.80245 -11.08359,-5.00467c0.37688,-0.10086 0.74752,-0.2187 1.11113,-0.35276c2.05459,2.84905 4.65935,4.07449 9.87821,4.07449h-0.17549c5.21885,0 7.82361,-1.22544 9.8782,-4.07449c0.36361,0.13406 0.73424,0.2519 1.11112,0.35276c-1.30474,3.20223 -5.77258,5.00467 -11.08358,5.00467h-0.00001" data-paper-data="{&quot;index&quot;:null}" fill="url(#color-10)" stroke-linecap="round"/><path d="M239.70746,141.92165c6.33002,0 9.48937,-1.79828 11.98139,-5.56317c0.44105,0.17713 0.89059,0.33289 1.3477,0.46615c-1.58253,4.23155 -7.00165,6.7923 -13.44343,6.7923v0.00003l0.81518,-0.00003c-6.44179,0 -11.86089,-2.56076 -13.44343,-6.79231c0.45712,-0.13326 0.90664,-0.28902 1.34769,-0.46616c2.49202,3.76487 5.65139,5.56315 11.98139,5.56315z" data-paper-data="{&quot;index&quot;:null}" fill="url(#color-11)" stroke-linecap="butt"/></g></g><g fill="none" stroke-width="1" stroke-linecap="round"><path d="M251.24704,136.75027c-1.88899,3.2645 -6.35968,4.69129 -11.0455,4.88431l-0.40159,-0.00001c-4.61917,-0.19028 -9.02929,-1.56376 -10.96333,-4.74582" data-paper-data="{&quot;index&quot;:null}" stroke="url(#color-12)"/><path d="M253.268,137.31545c-2.26061,4.3043 -7.5194,6.36087 -13.02952,6.61668h-0.47534c-5.42345,-0.2518 -10.60343,-2.23076 -12.92064,-6.41485" data-paper-data="{&quot;index&quot;:null}" stroke="url(#color-13)"/><path d="M248.25859,136.45997c-1.51628,2.02705 -4.7376,2.6958 -8.10688,2.81993h-0.30186c-3.40387,-0.1254 -6.65672,-0.81816 -8.15302,-2.88261" data-paper-data="{&quot;index&quot;:null}" stroke="url(#color-14)"/></g></g><g><g stroke="#000000" stroke-width="0"><g stroke-linecap="butt"><path d="M240.17781,267.35616c-11.51612,0 -17.48389,-2.33586 -17.48389,-2.33586c0,0 0.1482,-0.218 0.22354,-0.32591c3.85872,-5.52775 9.8694,-9.14277 16.654,-9.32918c0.18334,-0.00503 0.67524,-0.00503 0.85858,0c6.78461,0.18642 12.79531,3.80143 16.65401,9.32916c0.07535,0.10793 0.22354,0.32592 0.22354,0.32592c0,0 -5.96778,2.33585 -17.4839,2.33585c-0.14713,0 0.50128,0 0.35415,0z" data-paper-data="{&quot;index&quot;:null}" fill="url(#color-15)"/><path d="M240.17259,267.57545c-11.17998,0 -16.97359,-2.26074 -16.97359,-2.26074c0,0 0.14387,-0.21273 0.21702,-0.31804c3.74608,-5.39408 9.58133,-8.92164 16.1679,-9.10356c0.178,-0.00492 0.65553,-0.00491 0.83353,0.00001c6.58658,0.18191 12.42183,3.7095 16.16792,9.10357c0.07314,0.10532 0.21701,0.31805 0.21701,0.31805c0,0 -5.79361,2.26073 -16.97359,2.26073c-0.14285,0 0.48668,0 0.34383,0z" data-paper-data="{&quot;index&quot;:null}" fill="url(#color-16)"/></g><g><path d="M239.81867,262.00426h0.00001c5.311,0 9.77884,1.80244 11.08358,5.00467c-0.37688,0.10086 -0.74751,0.2187 -1.11112,0.35276c-2.05459,-2.84905 -4.65935,-4.07449 -9.8782,-4.07449h0.17549c-5.21886,0 -7.82362,1.22544 -9.87821,4.07449c-0.36361,-0.13406 -0.73425,-0.2519 -1.11113,-0.35276c1.30475,-3.20222 5.77259,-5.00467 11.08359,-5.00467" data-paper-data="{&quot;index&quot;:null}" fill="url(#color-17)" stroke-linecap="round"/><path d="M240.29397,261.18021c-6.33,0 -9.48937,1.79828 -11.98139,5.56315c-0.44105,-0.17714 -0.89057,-0.3329 -1.34769,-0.46616c1.58254,-4.23155 7.00164,-6.79231 13.44343,-6.79231l-0.81518,-0.00003v0.00003c6.44178,0 11.8609,2.56075 13.44343,6.7923c-0.45711,0.13326 -0.90665,0.28902 -1.3477,0.46615c-2.49202,-3.76489 -5.65137,-5.56317 -11.98139,-5.56317z" data-paper-data="{&quot;index&quot;:null}" fill="url(#color-18)" stroke-linecap="butt"/></g></g><g fill="none" stroke-width="1" stroke-linecap="round"><path d="M228.83661,266.21317c1.93404,-3.18206 6.34416,-4.55554 10.96333,-4.74582l0.40159,-0.00001c4.68582,0.19302 9.15651,1.61981 11.0455,4.88431" data-paper-data="{&quot;index&quot;:null}" stroke="url(#color-19)"/><path d="M226.84251,265.58484c2.31721,-4.18409 7.49719,-6.16305 12.92064,-6.41485h0.47534c5.51012,0.25581 10.76891,2.31238 13.02952,6.61668" data-paper-data="{&quot;index&quot;:null}" stroke="url(#color-20)"/><path d="M231.69682,266.70493c1.4963,-2.06445 4.74915,-2.75721 8.15302,-2.88261h0.30186c3.36928,0.12413 6.5906,0.79288 8.10688,2.81993" data-paper-data="{&quot;index&quot;:null}" stroke="url(#color-21)"/></g></g></g><g data-paper-data="{&quot;index&quot;:null}"><g data-paper-data="{&quot;index&quot;:null}"><g stroke="#000000" stroke-width="0"><g stroke-linecap="butt"><path d="M305.80521,201.7288c0,0.14713 0,-0.50128 0,-0.35415c0,11.51612 -2.33585,17.4839 -2.33585,17.4839c0,0 -0.21799,-0.14819 -0.32592,-0.22354c-5.52773,-3.8587 -9.14274,-9.8694 -9.32916,-16.65401c-0.00503,-0.18334 -0.00503,-0.67524 0,-0.85858c0.18641,-6.7846 3.80143,-12.79528 9.32918,-16.654c0.10791,-0.07534 0.32591,-0.22354 0.32591,-0.22354c0,0 2.33586,5.96777 2.33586,17.48389z" data-paper-data="{&quot;index&quot;:null}" fill="url(#color-22)"/><path d="M306.02459,201.7236c0,0.14285 0,-0.48668 0,-0.34383c0,11.17998 -2.26073,16.97359 -2.26073,16.97359c0,0 -0.21273,-0.14387 -0.31805,-0.21701c-5.39407,-3.74609 -8.92166,-9.58134 -9.10357,-16.16792c-0.00492,-0.178 -0.00493,-0.65553 -0.00001,-0.83353c0.18192,-6.58657 3.70948,-12.42182 9.10356,-16.1679c0.10531,-0.07315 0.31804,-0.21702 0.31804,-0.21702c0,0 2.26074,5.79361 2.26074,16.97359z" data-paper-data="{&quot;index&quot;:null}" fill="url(#color-23)"/></g><g><path d="M300.45324,201.73361c0,-5.311 1.80245,-9.77884 5.00467,-11.08359c0.10086,0.37688 0.2187,0.74752 0.35276,1.11113c-2.84905,2.05459 -4.07449,4.65935 -4.07449,9.87821v-0.17549c0,5.21885 1.22544,7.82361 4.07449,9.8782c-0.13406,0.36361 -0.2519,0.73424 -0.35276,1.11112c-3.20223,-1.30474 -5.00467,-5.77258 -5.00467,-11.08358v-0.00001" data-paper-data="{&quot;index&quot;:null}" fill="url(#color-24)" stroke-linecap="round"/><path d="M299.62944,201.2584c0,6.33002 1.79828,9.48937 5.56317,11.98139c-0.17713,0.44105 -0.33289,0.89059 -0.46615,1.3477c-4.23155,-1.58253 -6.7923,-7.00165 -6.7923,-13.44343h-0.00003l0.00003,0.81518c0,-6.44179 2.56076,-11.86089 6.79231,-13.44343c0.13326,0.45712 0.28902,0.90664 0.46616,1.34769c-3.76487,2.49202 -5.56315,5.65139 -5.56315,11.98139z" data-paper-data="{&quot;index&quot;:null}" fill="url(#color-25)" stroke-linecap="butt"/></g></g><g fill="none" stroke-width="1" stroke-linecap="round"><path d="M304.80084,212.79806c-3.2645,-1.88899 -4.69129,-6.35968 -4.88431,-11.0455l0.00001,-0.40159c0.19028,-4.61917 1.56376,-9.02929 4.74582,-10.96333" data-paper-data="{&quot;index&quot;:null}" stroke="url(#color-26)"/><path d="M304.23591,214.81902c-4.3043,-2.26061 -6.36087,-7.5194 -6.61668,-13.02952v-0.47534c0.2518,-5.42345 2.23076,-10.60343 6.41485,-12.92064" data-paper-data="{&quot;index&quot;:null}" stroke="url(#color-27)"/><path d="M305.09148,209.80961c-2.02705,-1.51628 -2.6958,-4.7376 -2.81993,-8.10688v-0.30186c0.1254,-3.40387 0.81816,-6.65672 2.88261,-8.15302" data-paper-data="{&quot;index&quot;:null}" stroke="url(#color-28)"/></g></g><g><g stroke="#000000" stroke-width="0"><g stroke-linecap="butt"><path d="M174.19563,201.7288c0,-11.51612 2.33586,-17.48389 2.33586,-17.48389c0,0 0.218,0.1482 0.32591,0.22354c5.52775,3.85872 9.14277,9.8694 9.32918,16.654c0.00503,0.18334 0.00503,0.67524 0,0.85858c-0.18642,6.78461 -3.80143,12.79531 -9.32916,16.65401c-0.10793,0.07535 -0.32592,0.22354 -0.32592,0.22354c0,0 -2.33585,-5.96778 -2.33585,-17.4839c0,-0.14713 0,0.50128 0,0.35415z" data-paper-data="{&quot;index&quot;:null}" fill="url(#color-29)"/><path d="M173.97627,201.72357c0,-11.17998 2.26074,-16.97359 2.26074,-16.97359c0,0 0.21273,0.14387 0.31804,0.21702c5.39408,3.74608 8.92164,9.58133 9.10356,16.1679c0.00492,0.178 0.00491,0.65553 -0.00001,0.83353c-0.18191,6.58658 -3.7095,12.42183 -9.10357,16.16792c-0.10532,0.07314 -0.31805,0.21701 -0.31805,0.21701c0,0 -2.26073,-5.79361 -2.26073,-16.97359c0,-0.14285 0,0.48668 0,0.34383z" data-paper-data="{&quot;index&quot;:null}" fill="url(#color-30)"/></g><g><path d="M179.54751,201.3697v0.00001c0,5.311 -1.80244,9.77884 -5.00467,11.08358c-0.10086,-0.37688 -0.2187,-0.74751 -0.35276,-1.11112c2.84905,-2.05459 4.07449,-4.65935 4.07449,-9.8782v0.17549c0,-5.21886 -1.22544,-7.82362 -4.07449,-9.87821c0.13406,-0.36361 0.2519,-0.73425 0.35276,-1.11113c3.20222,1.30475 5.00467,5.77259 5.00467,11.08359" data-paper-data="{&quot;index&quot;:null}" fill="url(#color-31)" stroke-linecap="round"/><path d="M180.37133,201.84498c0,-6.33 -1.79828,-9.48937 -5.56315,-11.98139c0.17714,-0.44105 0.3329,-0.89057 0.46616,-1.34769c4.23155,1.58254 6.79231,7.00164 6.79231,13.44343l0.00003,-0.81518h-0.00003c0,6.44178 -2.56075,11.8609 -6.7923,13.44343c-0.13326,-0.45711 -0.28902,-0.90665 -0.46615,-1.3477c3.76489,-2.49202 5.56317,-5.65137 5.56317,-11.98139z" data-paper-data="{&quot;index&quot;:null}" fill="url(#color-32)" stroke-linecap="butt"/></g></g><g fill="none" stroke-width="1" stroke-linecap="round"><path d="M175.33839,190.38755c3.18206,1.93404 4.55554,6.34416 4.74582,10.96333l0.00001,0.40159c-0.19302,4.68582 -1.61981,9.15651 -4.88431,11.0455" data-paper-data="{&quot;index&quot;:null}" stroke="url(#color-33)"/><path d="M175.96678,188.39352c4.18409,2.31721 6.16305,7.49719 6.41485,12.92064v0.47534c-0.25581,5.51012 -2.31238,10.76891 -6.61668,13.02952" data-paper-data="{&quot;index&quot;:null}" stroke="url(#color-34)"/><path d="M174.84664,193.24778c2.06445,1.4963 2.75721,4.74915 2.88261,8.15302v0.30186c-0.12413,3.36928 -0.79288,6.5906 -2.81993,8.10688" data-paper-data="{&quot;index&quot;:null}" stroke="url(#color-35)"/></g></g></g></g><path d="M240.0006,267.45196c-36.39604,0 -65.90087,-29.50481 -65.90087,-65.90086c0,-36.39603 29.50484,-65.90086 65.90087,-65.90086c36.39605,0 65.90086,29.50481 65.90086,65.90086c0,36.39604 -29.50481,65.90086 -65.90086,65.90086z" data-paper-data="{&quot;index&quot;:null}" fill="none" stroke="url(#color-36)" stroke-width="1.25" stroke-linecap="butt"/></g></g><path d="M240.00048,267.45196c-36.39604,0 -65.90087,-29.50481 -65.90087,-65.90086c0,-36.39603 29.50484,-65.90086 65.90087,-65.90086" data-paper-data="{&quot;index&quot;:null}" fill="none" stroke="url(#color-37)" stroke-width="1.25" stroke-linecap="butt"/></g><path d="M229.38901,163.39918c0.81433,1.1173 -0.31188,1.92521 -0.31188,1.92521l-1.62494,1.16324c-2.36473,1.34333 -5.2913,3.201 -7.92417,3.94564c-3.06095,0.86571 -6.82553,0.98799 -9.99329,0.99922c0,0 -1.38976,0.0036 -1.39339,-1.37518c-0.00363,-1.37878 1.38612,-1.38239 1.38612,-1.38239c2.91255,-0.00457 6.39207,-0.10079 9.20652,-0.88429c2.38634,-0.66431 5.06508,-2.40527 7.21203,-3.62059l1.50248,-1.08024c0,0 1.12619,-0.80789 1.9405,0.30942z" data-paper-data="{&quot;index&quot;:null}" fill="#000000" fill-rule="nonzero" stroke="none" stroke-width="0.5" stroke-linecap="butt" stroke-linejoin="miter" stroke-miterlimit="10"/><path d="M250.61141,163.39918c0.81432,-1.1173 1.9405,-0.30942 1.9405,-0.30942l1.50248,1.08024c2.14694,1.21532 4.82569,2.95627 7.21203,3.62058c2.81445,0.7835 6.29397,0.87972 9.20652,0.88429c0,0 1.38975,0.00361 1.38612,1.38239c-0.00363,1.37878 -1.39338,1.37518 -1.39338,1.37518c-3.16776,-0.01121 -6.93234,-0.1335 -9.9933,-0.99922c-2.63287,-0.74464 -5.55944,-2.60231 -7.92417,-3.94564l-1.62494,-1.16324c0,0 -1.12621,-0.80788 -0.31188,-1.92521z" data-paper-data="{&quot;index&quot;:null}" fill="#000000" fill-rule="nonzero" stroke="none" stroke-width="0.5" stroke-linecap="butt" stroke-linejoin="miter" stroke-miterlimit="10"/><g data-paper-data="{&quot;index&quot;:null}" fill-rule="nonzero" stroke-linecap="butt" stroke-linejoin="miter" stroke-miterlimit="10"><path d="M226.87821,189.55643c0,-2.7666 2.28292,-5.00939 5.09904,-5.00939c2.81612,0 5.09904,2.24278 5.09904,5.00939c0,2.7666 -2.28293,5.00939 -5.09904,5.00939c-2.81612,0 -5.09903,-2.24278 -5.09903,-5.00939z" fill="#000000" stroke="#661d00" stroke-width="1"/><path d="M228.52826,187.738c0,-0.64228 0.52539,-1.16296 1.17347,-1.16296c0.6481,0 1.17348,0.52068 1.17348,1.16296c0,0.64228 -0.52538,1.16295 -1.17348,1.16295c-0.6481,0 -1.17347,-0.52067 -1.17347,-1.16295z" fill="#ffffff" stroke="none" stroke-width="0.5"/></g><g data-paper-data="{&quot;index&quot;:null}" fill-rule="nonzero" stroke-linejoin="miter" stroke-miterlimit="10"><g stroke="#7e0000" stroke-width="0.5" stroke-linecap="butt"><g fill="#ff0000"><path d="M248.08243,80.1034c0,2.89334 -3.61855,5.23887 -8.08226,5.23887c-4.46371,0 -8.08226,-2.34552 -8.08226,-5.23887c0,-2.89334 3.61855,-5.23887 8.08226,-5.23887c4.46371,0 8.08226,2.34552 8.08226,5.23887z"/><path d="M274.31908,138.2321c-0.86313,0.75583 -65.69784,3.31514 -68.19603,-0.45874c-0.61029,-0.92193 -0.51493,-2.16301 -0.77239,-3.24452c-0.78708,-7.46059 -2.20806,-55.42918 33.5894,-56.51912c41.32635,-1.25829 36.12347,57.49993 35.37902,60.22238z"/></g><g><path d="M240.00019,140.27839c-23.0514,0 -41.73826,-2.06037 -41.73826,-4.60199c0,-2.54161 18.68685,-4.60199 41.73826,-4.60199c23.05141,0 41.73827,2.06038 41.73827,4.60199c0,2.54161 -18.68686,4.60199 -41.73827,4.60199z" fill="#b90000"/><path d="M198.26192,135.6764c0,-2.54161 18.68686,-4.60199 41.73827,-4.60199c22.84417,0 41.40194,2.02351 41.73374,4.53356c-0.13545,0.01482 -17.59688,3.16652 -41.49627,2.87644c-25.03688,0.79464 -41.26324,-2.83876 -41.89941,-2.78587c-0.02528,0.00072 -0.05053,0.00156 -0.07574,0.00252c-0.00039,-0.00821 -0.00059,-0.01644 -0.00059,-0.02467z" fill="#ff0000"/></g></g><g><text transform="translate(230.13016,121.74224) scale(0.13087,0.14473)" font-size="40" xml:space="preserve" fill="#7f0000" fill-rule="nonzero" stroke="#410000" stroke-width="1" stroke-linecap="butt" stroke-linejoin="miter" stroke-miterlimit="10" stroke-dasharray="" stroke-dashoffset="0" font-family="Marker" font-weight="normal" text-anchor="start" style="mix-blend-mode: normal"><tspan x="0" dy="0">Be Kool,</tspan><tspan x="0" dy="46.15px"> Guyz!</tspan></text><g stroke-width="0.5"><g data-paper-data="{&quot;index&quot;:null}"><path d="M230.57352,102.51133l-0.03397,-13.37954l5.16343,3.72804l2.27598,-5.17784l2.75156,4.34939l2.75156,-4.18371l2.07217,5.095l3.87257,-3.76947l0.03396,12.7582z" fill="#ffffab" stroke="#7f7f00" stroke-linecap="round"/><g stroke-linecap="butt"><g><g stroke="#7f7f00"><path d="M250.76032,104.5186c0,6.13454 -4.81749,11.10756 -10.76016,11.10756c-5.94267,0 -10.76015,-4.97302 -10.76015,-11.10756c0,-6.13454 4.81748,-11.10757 10.76015,-11.10757c5.94267,0 10.76016,4.97303 10.76016,11.10757z" fill="#fffe00"/><path d="M239.99454,93.41102c4.55068,0 8.44154,2.91613 10.01464,7.03689c-0.10615,-0.01407 -1.56655,-0.64685 -2.62148,-0.22353c-1.55498,0.62398 -2.91193,2.32133 -3.32982,1.70284c-1.79773,-2.66065 -4.19132,0.25645 -4.19132,0.25645c0,0 -1.98463,-1.40883 -2.88445,-1.73531c-1.8123,-0.65755 -3.29074,1.79728 -3.29074,1.79728c0,0 -2.0831,-2.52249 -3.70026,-1.82695c1.58031,-4.10532 5.46353,-7.00768 10.00344,-7.00768z" fill="#ffffab"/></g><path d="M239.5152,103.36896c0,2.58288 -1.81239,4.67671 -4.04808,4.67671c-2.23569,0 -4.04808,-2.09383 -4.04808,-4.67671c0,-2.58288 1.81239,-4.67672 4.04808,-4.67672c2.23569,0 4.04808,2.09384 4.04808,4.67672z" fill="#ffffff" stroke="#616100"/><path d="M244.53329,98.69225c2.23569,0 4.04808,2.09384 4.04808,4.67672c0,2.58288 -1.81239,4.67671 -4.04808,4.67671c-2.23569,0 -4.04808,-2.09383 -4.04808,-4.67671c0,-2.58288 1.81239,-4.67672 4.04808,-4.67672z" fill="#ffffff" stroke="#616100"/></g><path d="M241.2953,108.27498c0,0.56501 -0.57983,1.02304 -1.2951,1.02304c-0.71527,0 -1.29511,-0.45802 -1.29511,-1.02304c0,-0.56501 0.57984,-1.02305 1.29511,-1.02305c0.71527,0 1.2951,0.45803 1.2951,1.02305z" fill="#fffe00" stroke="#7f7f00"/></g></g><g stroke-linecap="butt"><path d="M237.86362,103.69287c0,1.37693 -0.91253,2.49316 -2.03819,2.49316c-1.12566,0 -2.03819,-1.11622 -2.03819,-2.49316c0,-1.37693 0.91253,-2.49316 2.03819,-2.49316c1.12566,0 2.03819,1.11623 2.03819,2.49316z" fill="#000000" stroke="#005fff"/><path d="M236.15632,102.88143c0,0.51542 -0.34565,0.93327 -0.77204,0.93327c-0.42638,0 -0.77205,-0.41783 -0.77205,-0.93327c0,-0.51542 0.34566,-0.93328 0.77205,-0.93328c0.42638,0 0.77204,0.41785 0.77204,0.93328z" fill="#ffffff" stroke="#000000"/></g><g data-paper-data="{&quot;index&quot;:null}" stroke-linecap="butt"><path d="M246.21316,103.69287c0,1.37693 -0.91253,2.49316 -2.03819,2.49316c-1.12566,0 -2.03819,-1.11622 -2.03819,-2.49316c0,-1.37693 0.91253,-2.49316 2.03819,-2.49316c1.12566,0 2.03819,1.11623 2.03819,2.49316z" fill="#000000" stroke="#005fff"/><path d="M244.50585,102.88143c0,0.51542 -0.34565,0.93327 -0.77204,0.93327c-0.42638,0 -0.77205,-0.41783 -0.77205,-0.93327c0,-0.51542 0.34566,-0.93328 0.77205,-0.93328c0.42638,0 0.77204,0.41785 0.77204,0.93328z" fill="#ffffff" stroke="#000000"/></g><path d="M232.39919,98.68556c0,0 0.81809,-1.36883 3.12907,-1.36396c2.29169,0.00484 2.59501,1.32926 2.59501,1.32926" fill="none" stroke="#484800" stroke-linecap="round"/><path d="M246.88243,96.86162l-5.18647,1.47267" data-paper-data="{&quot;index&quot;:null}" fill="none" stroke="#484800" stroke-linecap="round"/><path d="M245.33349,109.44825c0,0 -0.19338,2.61411 -5.29469,2.63199c-4.55303,0.01596 -5.49711,-2.72204 -5.49711,-2.72204" fill="none" stroke="#484800" stroke-linecap="round"/><g fill="#000000" stroke="#000000"><path d="M253.10586,99.10163v2.10629h-26.21141v-2.10629z" stroke-linecap="butt"/><path d="M248.70474,99.89485c0,0 1.42737,9.38116 -5.21815,8.14604c-4.37077,-0.94163 -3.69894,-5.6329 -3.69894,-5.6329c0,0 0.91584,5.74023 -3.28376,5.58956c-6.55628,0.40625 -5.6239,-8.10269 -5.6239,-8.10269z" stroke-linecap="round"/></g></g></g></g><g data-paper-data="{&quot;index&quot;:null}" fill-rule="nonzero" stroke-linecap="butt" stroke-linejoin="miter" stroke-miterlimit="10"><path d="M242.9246,189.5564c0,-2.7666 2.28292,-5.00939 5.09904,-5.00939c2.81612,0 5.09904,2.24278 5.09904,5.00939c0,2.7666 -2.28293,5.00939 -5.09904,5.00939c-2.81612,0 -5.09903,-2.24278 -5.09903,-5.00939z" fill="#000000" stroke="#661d00" stroke-width="1"/><path d="M244.57464,187.738c0,-0.64228 0.52539,-1.16296 1.17347,-1.16296c0.6481,0 1.17348,0.52068 1.17348,1.16296c0,0.64228 -0.52538,1.16295 -1.17348,1.16295c-0.6481,0 -1.17347,-0.52067 -1.17347,-1.16295z" fill="#ffffff" stroke="none" stroke-width="0.5"/></g><g data-paper-data="{&quot;index&quot;:null}"><g stroke-width="1"><path d="M252.15723,216.58864c1.45177,1.28586 1.84583,3.37365 1.18216,6.26337l-0.58071,1.94953c-0.67749,1.96336 -1.52782,3.7677 -2.55098,5.41305c-7.02382,-3.24921 -13.86099,-2.83442 -20.5115,1.24438c-1.59004,-1.96336 -2.49567,-4.27928 -2.71689,-6.94778l-0.04148,-0.55997c-0.13827,-2.87589 0.52541,-5.14343 1.99101,-6.8026c1.03698,-1.16142 2.02557,-1.73521 2.96577,-1.72139c0.69132,0 1.55547,0.38022 2.59245,1.14068l2.94503,2.03248c1.31351,0.70515 2.66158,1.01624 4.04423,0.93328c1.18907,-0.06913 2.31592,-0.45627 3.38056,-1.16142l2.34358,-1.92879c0.82959,-0.70515 1.55547,-1.07846 2.17766,-1.11994c0.82959,-0.06913 1.75596,0.35257 2.77911,1.26512M253.3394,222.852l-26.36008,1.65917l26.36008,-1.65917" fill="#ffffff" fill-rule="evenodd" stroke="none" stroke-linecap="butt" stroke-linejoin="miter" stroke-miterlimit="10"/><path d="M252.15723,216.58864c1.45177,1.28586 1.84583,3.37365 1.18216,6.26337l-0.58071,1.94953c-0.67749,1.96336 -1.52782,3.7677 -2.55098,5.41305c-7.02382,-3.24921 -13.86099,-2.83442 -20.5115,1.24438c-1.59004,-1.96336 -2.49567,-4.27928 -2.71689,-6.94778l-0.04148,-0.55997c-0.13827,-2.87589 0.52541,-5.14343 1.99101,-6.8026c1.03698,-1.16142 2.02557,-1.73521 2.96577,-1.72139c0.69132,0 1.55547,0.38022 2.59245,1.14068l2.94503,2.03248c1.31351,0.70515 2.66158,1.01624 4.04423,0.93328c1.18907,-0.06913 2.31592,-0.45627 3.38056,-1.16142l2.34358,-1.92879c0.82959,-0.70515 1.55547,-1.07846 2.17766,-1.11994c0.82959,-0.06913 1.75596,0.35257 2.77911,1.26512" fill="none" fill-rule="nonzero" stroke="#000000" stroke-linecap="round" stroke-linejoin="miter-clip" stroke-miterlimit="3"/></g><path d="M253.40449,222.86548l-26.36008,1.65917" fill="none" fill-rule="nonzero" stroke="#000000" stroke-width="0.5" stroke-linecap="round" stroke-linejoin="round" stroke-miterlimit="10"/></g><g data-paper-data="{&quot;index&quot;:null}" fill="#a260c2" fill-rule="nonzero" stroke="none" stroke-width="1" stroke-linecap="butt" stroke-linejoin="miter" stroke-miterlimit="10" font-weight="normal" font-size="40" text-anchor="start"><text transform="translate(157.86023,125.69956) scale(0.22598,0.28163)" font-size="40" xml:space="preserve" fill="#a260c2" fill-rule="nonzero" stroke="none" stroke-width="1" stroke-linecap="butt" stroke-linejoin="miter" stroke-miterlimit="10" stroke-dasharray="" stroke-dashoffset="0" font-family="Pixel" font-weight="normal" text-anchor="start" style="mix-blend-mode: normal"><tspan x="0" dy="0">X</tspan></text><text transform="translate(178.30632,125.69955) rotate(-180) scale(0.22598,-0.28163)" font-size="40" xml:space="preserve" data-paper-data="{&quot;index&quot;:null}" fill="#a260c2" fill-rule="nonzero" stroke="none" stroke-width="1" stroke-linecap="butt" stroke-linejoin="miter" stroke-miterlimit="10" stroke-dasharray="" stroke-dashoffset="0" font-family="Pixel" font-weight="normal" text-anchor="start" style="mix-blend-mode: normal"><tspan x="0" dy="0">X</tspan></text><text transform="translate(163.92246,127.12822) scale(0.5,0.5)" font-size="40" xml:space="preserve" fill="#a260c2" fill-rule="nonzero" stroke="none" stroke-width="1" stroke-linecap="butt" stroke-linejoin="miter" stroke-miterlimit="10" stroke-dasharray="" stroke-dashoffset="0" font-family="Sans Serif" font-weight="normal" text-anchor="start" style="mix-blend-mode: normal"><tspan x="0" dy="0">_</tspan></text></g><path d="M235.84533,202.51201c0,0 -3.29262,6.43539 -13.61907,5.90476c-10.91151,-0.5607 -13.61903,-5.99999 -13.61903,-5.99999" data-paper-data="{&quot;index&quot;:null}" fill="none" fill-rule="nonzero" stroke="#000000" stroke-width="0.5" stroke-linecap="round" stroke-linejoin="miter" stroke-miterlimit="10"/><path d="M271.3936,202.41679c0,0 -2.70752,5.43929 -13.61903,5.99999c-10.32645,0.53063 -13.61907,-5.90476 -13.61907,-5.90476" data-paper-data="{&quot;index&quot;:null}" fill="none" fill-rule="nonzero" stroke="#000000" stroke-width="0.5" stroke-linecap="round" stroke-linejoin="miter" stroke-miterlimit="10"/><path d="M231.69138,195.88402c0,0 -6.9343,0.80159 -6.94373,-6.83982c-0.00544,-4.6819 4.70779,-5.73161 4.70779,-5.73161" data-paper-data="{&quot;index&quot;:null}" fill="none" fill-rule="nonzero" stroke="#000000" stroke-width="0.5" stroke-linecap="round" stroke-linejoin="miter" stroke-miterlimit="10"/><path d="M223.02685,189.81259" data-paper-data="{&quot;index&quot;:null}" fill="none" fill-rule="nonzero" stroke="#000000" stroke-width="0.5" stroke-linecap="round" stroke-linejoin="miter" stroke-miterlimit="10"/><path d="M250.54546,183.31257c0,0 4.71323,1.04971 4.70779,5.73161c-0.00943,7.64141 -6.94373,6.83982 -6.94373,6.83982" data-paper-data="{&quot;index&quot;:null}" fill="none" fill-rule="nonzero" stroke="#000000" stroke-width="0.5" stroke-linecap="round" stroke-linejoin="miter" stroke-miterlimit="10"/><path d="M182.91074,178.92808c-2.5,0 -2.5,-2.5 -2.5,-2.5l0.03402,-1.26814c1.15208,-6.88018 0.53741,-13.92023 0.53741,-20.87473c0,0 0,-2.5 2.5,-2.5c2.5,0 2.5,2.5 2.5,2.5c0,7.2421 0.58393,14.52891 -0.60544,21.6967l0.03402,0.44616c0,0 0,2.5 -2.5,2.5z" data-paper-data="{&quot;index&quot;:null}" fill="#c0ebff" fill-rule="nonzero" stroke="none" stroke-width="0.5" stroke-linecap="butt" stroke-linejoin="miter" stroke-miterlimit="10"/><path d="M193.3393,178.35663c-2.5,0 -2.5,-2.5 -2.5,-2.5v-2c0.00185,-6.90004 0.21719,-13.72781 0.00122,-20.6362c0,0 -0.07809,-2.49877 2.42069,-2.57687c2.49878,-0.07809 2.57688,2.42068 2.57688,2.42068c0.21742,6.95933 -0.00072,13.84183 0.00122,20.79238v2c0,0 0,2.5 -2.5,2.5z" data-paper-data="{&quot;index&quot;:null}" fill="#c0ebff" fill-rule="nonzero" stroke="none" stroke-width="0.5" stroke-linecap="butt" stroke-linejoin="miter" stroke-miterlimit="10"/><path d="M202.05358,179.35663c-2.5,0 -2.5,-2.5 -2.5,-2.5l0.01027,-1.08348c0.70891,-7.79469 0.81375,-15.64742 1.86982,-23.39716c0,0 0.33778,-2.47707 2.81486,-2.13929c2.47708,0.33778 2.13929,2.81486 2.13929,2.81486c-1.04712,7.67346 -1.14306,15.45499 -1.8445,23.17428l0.01027,0.6308c0,0 0,2.5 -2.5,2.5z" data-paper-data="{&quot;index&quot;:null}" fill="#c0ebff" fill-rule="nonzero" stroke="none" stroke-width="0.5" stroke-linecap="butt" stroke-linejoin="miter" stroke-miterlimit="10"/></g></g></svg>