<svg version="1.1" xmlns="http://www.w3.org/2000/svg" xmlns:xlink="http://www.w3.org/1999/xlink" width="186.75682" height="263.72825" viewBox="0,0,186.75682,263.72825"><g transform="translate(-146.62158,-45.57968)"><g data-paper-data="{&quot;isPaintingLayer&quot;:true}" fill-rule="nonzero" stroke-linejoin="miter" stroke-miterlimit="10" stroke-dasharray="" stroke-dashoffset="0" style="mix-blend-mode: normal"><g data-paper-data="{&quot;index&quot;:null}" stroke="#000000" stroke-linecap="butt"><g stroke-width="0"><path d="M207.19066,308.30791l13.57389,-132l38.47114,0.00001l13.57389,132z" data-paper-data="{&quot;index&quot;:null}" fill="#ff6f00"/><path d="M240.34235,209.54309c-14.78013,0.46631 -22.31105,-6.54215 -22.31105,-6.54215c0.9711,-9.44359 2.7449,-26.69287 2.7449,-26.69287l38.44788,-0.00001c0,0 1.77379,17.24928 2.7449,26.69287c0,0 -7.53092,7.00846 -22.31105,6.54215z" data-paper-data="{&quot;index&quot;:null}" fill="#e46300"/></g><path d="M207.19065,308.30791l13.57389,-132l38.47114,0.00001l13.57389,132z" data-paper-data="{&quot;index&quot;:null}" fill="none" stroke-width="2"/></g><g data-paper-data="{&quot;index&quot;:null}" stroke="#000000" stroke-width="2" stroke-linecap="butt"><path d="M262.62156,111.15118l49.49747,-49.49748l5.18545,5.18544l-49.49748,49.49748z" fill="#ffb780"/><path d="M302.21952,76.73857c-6.89926,-6.89926 -6.89926,-18.08518 0,-24.98444c6.89926,-6.89926 18.08518,-6.89926 24.98444,0c6.89926,6.89926 6.89926,18.08518 0,24.98444c-6.89926,6.89926 -18.08518,6.89926 -24.98444,0z" fill="#ff6f00"/></g><g data-paper-data="{&quot;index&quot;:null}" stroke="#000000" stroke-width="2" stroke-linecap="butt"><path d="M212.19312,116.33662l-49.49748,-49.49748l5.18545,-5.18544l49.49747,49.49748z" fill="#ffb780"/><path d="M152.79603,76.73857c-6.89926,-6.89926 -6.89926,-18.08518 0,-24.98444c6.89926,-6.89926 18.08518,-6.89926 24.98444,0c6.89926,6.89926 6.89926,18.08518 0,24.98444c-6.89926,6.89926 -18.08518,6.89926 -24.98444,0z" fill="#ff6f00"/></g><g data-paper-data="{&quot;index&quot;:null}" stroke="#000000"><g fill="#f26900" stroke-width="2" stroke-linecap="butt"><path d="M182.22137,161.50009c-4.0265,0 -18.35223,-21.75 -18.35223,-21.75c0,0 14.32573,-21.75 18.35223,-21.75c4.0265,0 7.29061,9.7378 7.29061,21.75c0,12.01219 -3.26412,21.75 -7.29061,21.75z" data-paper-data="{&quot;index&quot;:null}"/><path d="M290.48814,139.75009c0,-12.0122 3.26412,-21.75 7.29061,-21.75c4.0265,0 18.35223,21.75 18.35223,21.75c0,0 -14.32574,21.75 -18.35223,21.75c-4.0265,0 -7.29061,-9.73781 -7.29061,-21.75z" data-paper-data="{&quot;index&quot;:null}"/></g><g data-paper-data="{&quot;index&quot;:null}" stroke-linecap="butt"><g data-paper-data="{&quot;index&quot;:null}"><g stroke-width="0"><path d="M175.76312,137.6542c0,-33.30185 28.7599,-60.29833 64.23702,-60.29833c35.47712,0 64.23702,26.99649 64.23702,60.29833c0,33.30185 -28.7599,60.29833 -64.23702,60.29833c-35.47712,0 -64.23702,-26.99649 -64.23702,-60.29833z" data-paper-data="{&quot;index&quot;:null}" fill="#ff6f00"/><path d="M175.76312,137.6542c0,-3.59706 6.09268,55.12398 64.48616,55.59509c58.45862,-2.36524 63.98788,-58.62043 63.98788,-55.59509c0,33.30185 -28.7599,60.29833 -64.23702,60.29833c-35.47712,0 -64.23702,-26.99649 -64.23702,-60.29833z" data-paper-data="{&quot;index&quot;:null}" fill="#e46300"/></g><path d="M175.76312,137.6542c0,-33.30185 28.7599,-60.29833 64.23702,-60.29833c35.47712,0 64.23702,26.99649 64.23702,60.29833c0,33.30185 -28.7599,60.29833 -64.23702,60.29833c-35.47712,0 -64.23702,-26.99649 -64.23702,-60.29833z" data-paper-data="{&quot;index&quot;:null}" fill="none" stroke-width="2"/></g><path d="M189.31333,138.08364c0,-12.968 10.51265,-23.48065 23.48065,-23.48065c12.968,0 23.48065,10.51265 23.48065,23.48065c0,12.968 -10.51265,23.48065 -23.48065,23.48065c-12.968,0 -23.48065,-10.51265 -23.48065,-23.48065z" data-paper-data="{&quot;index&quot;:null}" fill="#ffffff" stroke-width="2"/><path d="M267.20617,161.56431c-12.968,0 -23.48065,-10.51265 -23.48065,-23.48065c0,-12.968 10.51265,-23.48065 23.48065,-23.48065c12.968,0 23.48065,10.51265 23.48065,23.48065c0,12.968 -10.51265,23.48065 -23.48065,23.48065z" data-paper-data="{&quot;index&quot;:null}" fill="#ffffff" stroke-width="2"/></g><g data-paper-data="{&quot;index&quot;:null}" stroke-width="2"><path d="M239.72791,48.28608c74.10115,0.10071 73.48132,76.66666 73.48132,76.66666l-7.38022,-3c0,0 -4.25744,-68.09183 -66.1011,-66.66667h0.54439c-61.84366,-1.42516 -66.1011,66.66667 -66.1011,66.66667l-7.38022,3c0,0 -0.61983,-76.56595 73.48132,-76.66666z" fill="#ffb780" stroke-linecap="round"/><g stroke-linecap="butt"><g data-paper-data="{&quot;index&quot;:null}"><path d="M157.70756,138.1379c0,-12.51846 9.08054,-22.66667 20.28196,-22.66667c1.01424,0 1.18635,45.33333 0,45.33333c-11.20142,0 -20.28196,-10.14821 -20.28196,-22.66666z" data-paper-data="{&quot;index&quot;:null}" fill="#ff6f00"/><path d="M172.7783,162.1379v-48.33334h10.14098v48.33334z" data-paper-data="{&quot;index&quot;:null}" fill="#ffb780"/></g><g data-paper-data="{&quot;index&quot;:null}"><path d="M302.01052,160.80454c-1.18635,0 -1.01424,-45.33333 0,-45.33333c11.20142,0 20.28196,10.14821 20.28196,22.66667c0,12.51845 -9.08054,22.66666 -20.28196,22.66666z" data-paper-data="{&quot;index&quot;:null}" fill="#ff6f00"/><path d="M297.08083,162.1379v-48.33334h10.14098v48.33334z" data-paper-data="{&quot;index&quot;:null}" fill="#ffb780"/></g></g></g></g><path d="M196.37871,137.80803c0,-9.12808 7.39976,-16.52784 16.52783,-16.52784c9.12808,0 16.52784,7.39977 16.52784,16.52784c0,9.12808 -7.39977,16.52784 -16.52784,16.52784c-9.12808,0 -16.52783,-7.39977 -16.52783,-16.52784z" data-paper-data="{&quot;index&quot;:null}" fill="#000000" stroke="none" stroke-width="0" stroke-linecap="butt"/><path d="M189.31333,138.08364c0,-12.968 10.51265,-23.48065 23.48065,-23.48065c12.968,0 23.48065,10.51265 23.48065,23.48065c0,0 -46.96131,1.23155 -46.96131,0z" data-paper-data="{&quot;index&quot;:null}" fill="#ff6f00" stroke="#000000" stroke-width="2" stroke-linecap="butt"/><path d="M267.09362,154.33588c-9.12807,0 -16.52784,-7.39976 -16.52784,-16.52784c0,-9.12807 7.39976,-16.52784 16.52784,-16.52784c9.12807,0 16.52783,7.39976 16.52783,16.52784c0,9.12807 -7.39975,16.52784 -16.52783,16.52784z" data-paper-data="{&quot;index&quot;:null}" fill="#000000" stroke="none" stroke-width="0" stroke-linecap="butt"/><path d="M290.68683,138.08364c0,1.23155 -46.96131,0 -46.96131,0c0,-12.968 10.51265,-23.48065 23.48065,-23.48065c12.968,0 23.48065,10.51265 23.48065,23.48065z" data-paper-data="{&quot;index&quot;:null}" fill="#ff6f00" stroke="#000000" stroke-width="2" stroke-linecap="butt"/><path d="M201.95098,109.27528c0,0 6.70895,-5.16922 11.79721,-6.36355c5.08827,-1.19433 12.33413,0.69937 12.33413,0.69937c0,0 -8.03812,-0.06028 -11.96762,0.86207c-4.10648,0.96389 -12.16372,4.80211 -12.16372,4.80211z" data-paper-data="{&quot;index&quot;:null}" fill="#000000" stroke="none" stroke-width="0" stroke-linecap="butt"/><path d="M265.88543,104.47316c-3.9295,-0.92235 -11.96762,-0.86207 -11.96762,-0.86207c0,0 7.24586,-1.8937 12.33413,-0.69937c5.08826,1.19433 11.79721,6.36355 11.79721,6.36355c0,0 -8.05724,-3.83822 -12.16372,-4.80211z" data-paper-data="{&quot;index&quot;:null}" fill="#000000" stroke="none" stroke-width="0" stroke-linecap="butt"/><path d="M257.53873,84.75083l4.83333,21.33333l-23.83333,-11.5l1.33333,11.33334l-23,-18" data-paper-data="{&quot;index&quot;:null}" fill="#ff6f00" stroke="#000000" stroke-width="2" stroke-linecap="round"/><path d="M252.5549,177.46456c0,0 -4.09668,4 -12.91066,4.14285l0.71176,-0.00001c-8.81398,-0.14285 -12.91066,-4.14285 -12.91066,-4.14285" data-paper-data="{&quot;index&quot;:null}" fill="none" stroke="#000000" stroke-width="2" stroke-linecap="round"/></g></g></svg>